<mxfile host="Electron" agent="Mozilla/5.0 (Windows NT 10.0; Win64; x64) AppleWebKit/537.36 (KHTML, like Gecko) draw.io/27.0.5 Chrome/134.0.6998.205 Electron/35.3.0 Safari/537.36" version="27.0.5">
  <diagram name="Страница-1" id="Page-1">
    <mxGraphModel dx="1426" dy="865" grid="0" gridSize="10" guides="1" tooltips="1" connect="1" arrows="1" fold="1" page="1" pageScale="1" pageWidth="3300" pageHeight="2339" math="0" shadow="0">
      <root>
        <mxCell id="0" />
        <mxCell id="1" parent="0" />
        <UserObject label="" tags="Фон" id="_ZZdqA9BTvaIFxd32HA9-258">
          <mxCell style="vsdxID=163;fillColor=none;gradientColor=none;strokeColor=none;points=[];labelBackgroundColor=none;rounded=0;html=1;whiteSpace=wrap;arcSize=50;" parent="1" vertex="1">
            <mxGeometry x="33" y="2" width="3264" height="2334" as="geometry" />
          </mxCell>
        </UserObject>
        <UserObject label="" tags="Фон" id="_ZZdqA9BTvaIFxd32HA9-259">
          <mxCell style="vsdxID=26;edgeStyle=none;startArrow=none;endArrow=none;startSize=5;endSize=5;strokeWidth=4;strokeColor=#000000;spacingTop=0;spacingBottom=0;spacingLeft=0;spacingRight=0;verticalAlign=middle;html=1;labelBackgroundColor=none;rounded=0;" parent="_ZZdqA9BTvaIFxd32HA9-258" edge="1">
            <mxGeometry relative="1" as="geometry">
              <mxPoint as="offset" />
              <Array as="points" />
              <mxPoint as="sourcePoint" />
              <mxPoint x="3264" as="targetPoint" />
            </mxGeometry>
          </mxCell>
        </UserObject>
        <UserObject label="" tags="Фон" id="_ZZdqA9BTvaIFxd32HA9-260">
          <mxCell style="vsdxID=27;edgeStyle=none;startArrow=none;endArrow=none;startSize=5;endSize=5;strokeWidth=4;strokeColor=#000000;spacingTop=0;spacingBottom=0;spacingLeft=0;spacingRight=0;verticalAlign=middle;html=1;labelBackgroundColor=none;rounded=0;" parent="_ZZdqA9BTvaIFxd32HA9-258" edge="1">
            <mxGeometry relative="1" as="geometry">
              <Array as="points" />
              <mxPoint x="3264" y="2334" as="sourcePoint" />
              <mxPoint x="3264" as="targetPoint" />
            </mxGeometry>
          </mxCell>
        </UserObject>
        <UserObject label="&lt;div style=&quot;&quot;&gt;&lt;font face=&quot;Times New Roman&quot;&gt;&lt;span style=&quot;font-size: 30px;&quot;&gt;Предобработка данных&lt;/span&gt;&lt;/font&gt;&lt;/div&gt;" tags="Блок-схема" id="2">
          <mxCell style="verticalAlign=middle;align=center;overflow=width;vsdxID=3;fillColor=none;gradientColor=none;shape=stencil(tVLRDsIgDPwaHjEIWfR9zv9oHGNEhKWgm38vyIzTZXsxvl171zbXlojSt9BJwpkP6M6y13VoiTgQzrVtJeoQEREVEWXjUCp0V1vnuIOkTOjibqnDkOu2fFOkIs7uY4KxZ3zMaqPtRL3frasBT5HDWW8c5UVWL7Z70RQG7Sm6AEE7+8EZQCVpHEQbA2oclCnfS9lN0itGZrZ/sbG4w78YieB9zEYbk39hyn8fP6by44jqAQ==);strokeColor=#000000;spacingTop=-1;spacingBottom=-1;spacingLeft=-1;spacingRight=-1;points=[[0.5,0,0],[0.5,0.5,0],[1,0.5,0]];labelBackgroundColor=none;rounded=0;html=1;whiteSpace=wrap;" parent="_ZZdqA9BTvaIFxd32HA9-258" vertex="1">
            <mxGeometry x="666.04" y="122" width="314.96" height="98.425" as="geometry" />
          </mxCell>
        </UserObject>
        <UserObject label="&lt;div style=&quot;&quot;&gt;&lt;font face=&quot;Times New Roman&quot;&gt;&lt;span style=&quot;font-size: 30px;&quot;&gt;Нормализация изображений&lt;/span&gt;&lt;/font&gt;&lt;/div&gt;" tags="Фон" id="3">
          <mxCell style="verticalAlign=middle;align=center;overflow=width;vsdxID=4;fillColor=none;gradientColor=none;shape=stencil(nZBLDoAgDERP0z3SIyjew0SURgSD+Lu9kMZoXLhwN9O+tukAlrNpJg1SzDH4QW/URgNYgZTkjA4UkwJUgGXng+6DX1zLfmoymdXo17xh5zmRJ6Q42BWCfc2oJfdAr+Yv+AP9Cb7OJ3H/2JG1HNGz/84klThPVCc=);points=[];labelBackgroundColor=none;rounded=0;html=1;whiteSpace=wrap;" parent="_ZZdqA9BTvaIFxd32HA9-258" vertex="1">
            <mxGeometry x="673" y="506" width="314.96" height="196.85" as="geometry" />
          </mxCell>
        </UserObject>
        <UserObject label="&lt;div style=&quot;&quot;&gt;&lt;font style=&quot;font-family: &amp;quot;Times New Roman&amp;quot;; color: rgb(0, 0, 0); direction: ltr; letter-spacing: 0px; line-height: 120%; opacity: 1; font-size: 30px;&quot;&gt;Разбиение на пакеты&lt;/font&gt;&lt;/div&gt;" tags="Фон" id="5">
          <mxCell style="verticalAlign=middle;align=center;overflow=width;vsdxID=10;fillColor=none;gradientColor=none;shape=stencil(nZBLDoAgDERP0z3SIyjew0SURgSD+Lu9kMZoXLhwN9O+tukAlrNpJg1SzDH4QW/URgNYgZTkjA4UkwJUgGXng+6DX1zLfmoymdXo17xh5zmRJ6Q42BWCfc2oJfdAr+Yv+AP9Cb7OJ3H/2JG1HNGz/84klThPVCc=);points=[];labelBackgroundColor=none;rounded=0;html=1;whiteSpace=wrap;" parent="_ZZdqA9BTvaIFxd32HA9-258" vertex="1">
            <mxGeometry x="673" y="750" width="314.96" height="196.85" as="geometry" />
          </mxCell>
        </UserObject>
        <UserObject label="&lt;div style=&quot;&quot;&gt;&lt;font style=&quot;font-family: &amp;quot;Times New Roman&amp;quot;; color: rgb(0, 0, 0); direction: ltr; letter-spacing: 0px; line-height: 120%; opacity: 1; font-size: 30px;&quot;&gt;Конец&lt;/font&gt;&lt;/div&gt;" tags="Блок-схема" id="22">
          <mxCell style="verticalAlign=middle;align=center;overflow=width;vsdxID=31;fillColor=none;gradientColor=none;shape=stencil(tVLRDsIgDPwaHjEIWfR9zv9oHGNEhKWgm38vyIzTZXsxvl171zbXlojSt9BJwpkP6M6y13VoiTgQzrVtJeoQEREVEWXjUCp0V1vnuIOkTOjibqnDkOu2fFOkIs7uY4KxZ3zMaqPtRL3frasBT5HDWW8c5UVWL7Z70RQG7Sm6AEE7+8EZQCVpHEQbA2oclCnfS9lN0itGZrZ/sbG4w78YieB9zEYbk39hyn8fP6by44jqAQ==);strokeColor=#000000;spacingTop=-1;spacingBottom=-1;spacingLeft=-1;spacingRight=-1;points=[[0.5,0,0],[0.5,0.5,0],[1,0.5,0]];labelBackgroundColor=none;rounded=0;html=1;whiteSpace=wrap;" parent="_ZZdqA9BTvaIFxd32HA9-258" vertex="1">
            <mxGeometry x="673" y="1001.48" width="314.96" height="98.425" as="geometry" />
          </mxCell>
        </UserObject>
        <UserObject label="" tags="Соединительная_линия" id="64">
          <mxCell style="vsdxID=34;edgeStyle=none;startArrow=none;endArrow=none;startSize=9;endSize=9;spacingTop=0;spacingBottom=0;spacingLeft=0;spacingRight=0;verticalAlign=middle;html=1;labelBackgroundColor=#ffffff;rounded=0;exitX=0.5;exitY=1;exitDx=0;exitDy=0;exitPerimeter=0;entryX=0.5;entryY=0;entryDx=0;entryDy=0;entryPerimeter=0;" parent="_ZZdqA9BTvaIFxd32HA9-258" source="3" target="5" edge="1">
            <mxGeometry relative="1" as="geometry">
              <mxPoint x="10" as="offset" />
              <Array as="points" />
            </mxGeometry>
          </mxCell>
        </UserObject>
        <UserObject label="" tags="Соединительная_линия" id="68">
          <mxCell style="vsdxID=35;edgeStyle=none;startArrow=none;endArrow=none;startSize=9;endSize=9;spacingTop=0;spacingBottom=0;spacingLeft=0;spacingRight=0;verticalAlign=middle;html=1;labelBackgroundColor=#ffffff;rounded=0;" parent="_ZZdqA9BTvaIFxd32HA9-258" source="22" target="5" edge="1">
            <mxGeometry relative="1" as="geometry">
              <mxPoint x="10" as="offset" />
              <Array as="points" />
              <mxPoint x="845" y="1344.74" as="sourcePoint" />
            </mxGeometry>
          </mxCell>
        </UserObject>
        <UserObject label="" tags="Соединительная_линия" id="91">
          <mxCell style="vsdxID=98;edgeStyle=none;startArrow=none;endArrow=none;startSize=9;endSize=9;spacingTop=0;spacingBottom=0;spacingLeft=0;spacingRight=0;verticalAlign=middle;html=1;labelBackgroundColor=#ffffff;rounded=0;exitX=0.5;exitY=0;exitDx=0;exitDy=0;exitPerimeter=0;" parent="_ZZdqA9BTvaIFxd32HA9-258" source="3" target="-vvNRfhl6B39tYFBRO2q-98" edge="1">
            <mxGeometry relative="1" as="geometry">
              <mxPoint x="10" as="offset" />
              <Array as="points" />
            </mxGeometry>
          </mxCell>
        </UserObject>
        <UserObject label="" tags="Соединительная_линия" id="98">
          <mxCell style="vsdxID=95;edgeStyle=none;startArrow=none;endArrow=none;startSize=9;endSize=9;spacingTop=0;spacingBottom=0;spacingLeft=0;spacingRight=0;verticalAlign=middle;html=1;labelBackgroundColor=#ffffff;rounded=0;exitX=0.5;exitY=1;exitDx=0;exitDy=0;exitPerimeter=0;" parent="_ZZdqA9BTvaIFxd32HA9-258" source="2" target="-vvNRfhl6B39tYFBRO2q-98" edge="1">
            <mxGeometry relative="1" as="geometry">
              <mxPoint x="10" as="offset" />
              <Array as="points" />
            </mxGeometry>
          </mxCell>
        </UserObject>
        <UserObject label="&lt;div style=&quot;&quot;&gt;&lt;font face=&quot;Times New Roman&quot;&gt;&lt;span style=&quot;font-size: 30px;&quot;&gt;Добавление шумов&lt;/span&gt;&lt;/font&gt;&lt;/div&gt;" tags="Фон" id="-vvNRfhl6B39tYFBRO2q-98">
          <mxCell style="verticalAlign=middle;align=center;overflow=width;vsdxID=100;fillColor=none;gradientColor=none;shape=stencil(nZBLDoAgDERP0z3SIyjew0SURgSD+Lu9kMZoXLhwN9O+tukAlrNpJg1SzDH4QW/URgNYgZTkjA4UkwJUgGXng+6DX1zLfmoymdXo17xh5zmRJ6Q42BWCfc2oJfdAr+Yv+AP9Cb7OJ3H/2JG1HNGz/84klThPVCc=);points=[];labelBackgroundColor=none;rounded=0;html=1;whiteSpace=wrap;" parent="_ZZdqA9BTvaIFxd32HA9-258" vertex="1">
            <mxGeometry x="666.04" y="261.004" width="314.96" height="196.85" as="geometry" />
          </mxCell>
        </UserObject>
        <UserObject label="&lt;div style=&quot;&quot;&gt;&lt;span style=&quot;font-family: &amp;quot;Times New Roman&amp;quot;;&quot;&gt;&lt;font style=&quot;font-size: 30px;&quot;&gt;Настройка нейронной сети&lt;/font&gt;&lt;/span&gt;&lt;/div&gt;" tags="Блок-схема" id="-vvNRfhl6B39tYFBRO2q-101">
          <mxCell style="verticalAlign=middle;align=center;overflow=width;vsdxID=3;fillColor=none;gradientColor=none;shape=stencil(tVLRDsIgDPwaHjEIWfR9zv9oHGNEhKWgm38vyIzTZXsxvl171zbXlojSt9BJwpkP6M6y13VoiTgQzrVtJeoQEREVEWXjUCp0V1vnuIOkTOjibqnDkOu2fFOkIs7uY4KxZ3zMaqPtRL3frasBT5HDWW8c5UVWL7Z70RQG7Sm6AEE7+8EZQCVpHEQbA2oclCnfS9lN0itGZrZ/sbG4w78YieB9zEYbk39hyn8fP6by44jqAQ==);strokeColor=#000000;spacingTop=-1;spacingBottom=-1;spacingLeft=-1;spacingRight=-1;points=[[0.5,0,0],[0.5,0.5,0],[1,0.5,0]];labelBackgroundColor=none;rounded=0;html=1;whiteSpace=wrap;" parent="_ZZdqA9BTvaIFxd32HA9-258" vertex="1">
            <mxGeometry x="1160" y="122" width="314.96" height="98.425" as="geometry" />
          </mxCell>
        </UserObject>
        <UserObject label="&lt;div style=&quot;&quot;&gt;&lt;font style=&quot;font-family: &amp;quot;Times New Roman&amp;quot;; color: rgb(0, 0, 0); direction: ltr; letter-spacing: 0px; line-height: 120%; opacity: 1; font-size: 30px;&quot;&gt;Загрузка конфигурации&lt;/font&gt;&lt;/div&gt;" tags="Фон" id="-vvNRfhl6B39tYFBRO2q-102">
          <mxCell style="verticalAlign=middle;align=center;overflow=width;vsdxID=4;fillColor=none;gradientColor=none;shape=stencil(nZBLDoAgDERP0z3SIyjew0SURgSD+Lu9kMZoXLhwN9O+tukAlrNpJg1SzDH4QW/URgNYgZTkjA4UkwJUgGXng+6DX1zLfmoymdXo17xh5zmRJ6Q42BWCfc2oJfdAr+Yv+AP9Cb7OJ3H/2JG1HNGz/84klThPVCc=);points=[];labelBackgroundColor=none;rounded=0;html=1;whiteSpace=wrap;" parent="_ZZdqA9BTvaIFxd32HA9-258" vertex="1">
            <mxGeometry x="1160" y="506" width="314.96" height="196.85" as="geometry" />
          </mxCell>
        </UserObject>
        <UserObject label="" tags="Соединительная_линия" id="-vvNRfhl6B39tYFBRO2q-104">
          <mxCell style="vsdxID=34;edgeStyle=none;startArrow=none;endArrow=none;startSize=9;endSize=9;spacingTop=0;spacingBottom=0;spacingLeft=0;spacingRight=0;verticalAlign=middle;html=1;labelBackgroundColor=#ffffff;rounded=0;exitX=0.5;exitY=1;exitDx=0;exitDy=0;exitPerimeter=0;" parent="_ZZdqA9BTvaIFxd32HA9-258" source="-vvNRfhl6B39tYFBRO2q-102" target="-vvNRfhl6B39tYFBRO2q-108" edge="1">
            <mxGeometry relative="1" as="geometry">
              <mxPoint x="10" as="offset" />
              <Array as="points" />
              <mxPoint x="1359" y="1116" as="targetPoint" />
            </mxGeometry>
          </mxCell>
        </UserObject>
        <UserObject label="" tags="Соединительная_линия" id="-vvNRfhl6B39tYFBRO2q-105">
          <mxCell style="vsdxID=98;edgeStyle=none;startArrow=none;endArrow=none;startSize=9;endSize=9;spacingTop=0;spacingBottom=0;spacingLeft=0;spacingRight=0;verticalAlign=middle;html=1;labelBackgroundColor=#ffffff;rounded=0;exitX=0.5;exitY=0;exitDx=0;exitDy=0;exitPerimeter=0;" parent="_ZZdqA9BTvaIFxd32HA9-258" source="-vvNRfhl6B39tYFBRO2q-102" target="-vvNRfhl6B39tYFBRO2q-107" edge="1">
            <mxGeometry relative="1" as="geometry">
              <mxPoint x="10" as="offset" />
              <Array as="points" />
            </mxGeometry>
          </mxCell>
        </UserObject>
        <UserObject label="" tags="Соединительная_линия" id="-vvNRfhl6B39tYFBRO2q-106">
          <mxCell style="vsdxID=95;edgeStyle=none;startArrow=none;endArrow=none;startSize=9;endSize=9;spacingTop=0;spacingBottom=0;spacingLeft=0;spacingRight=0;verticalAlign=middle;html=1;labelBackgroundColor=#ffffff;rounded=0;exitX=0.5;exitY=1;exitDx=0;exitDy=0;exitPerimeter=0;" parent="_ZZdqA9BTvaIFxd32HA9-258" source="-vvNRfhl6B39tYFBRO2q-101" target="-vvNRfhl6B39tYFBRO2q-107" edge="1">
            <mxGeometry relative="1" as="geometry">
              <mxPoint x="10" as="offset" />
              <Array as="points" />
            </mxGeometry>
          </mxCell>
        </UserObject>
        <UserObject label="&lt;div style=&quot;&quot;&gt;&lt;font style=&quot;font-family: &amp;quot;Times New Roman&amp;quot;; color: rgb(0, 0, 0); direction: ltr; letter-spacing: 0px; line-height: 120%; opacity: 1; font-size: 30px;&quot;&gt;Инициализация модели&lt;/font&gt;&lt;/div&gt;" tags="Фон" id="-vvNRfhl6B39tYFBRO2q-107">
          <mxCell style="verticalAlign=middle;align=center;overflow=width;vsdxID=100;fillColor=none;gradientColor=none;shape=stencil(nZBLDoAgDERP0z3SIyjew0SURgSD+Lu9kMZoXLhwN9O+tukAlrNpJg1SzDH4QW/URgNYgZTkjA4UkwJUgGXng+6DX1zLfmoymdXo17xh5zmRJ6Q42BWCfc2oJfdAr+Yv+AP9Cb7OJ3H/2JG1HNGz/84klThPVCc=);points=[];labelBackgroundColor=none;rounded=0;html=1;whiteSpace=wrap;" parent="_ZZdqA9BTvaIFxd32HA9-258" vertex="1">
            <mxGeometry x="1160" y="261" width="314.96" height="196.85" as="geometry" />
          </mxCell>
        </UserObject>
        <UserObject label="&lt;div style=&quot;&quot;&gt;&lt;font style=&quot;font-family: &amp;quot;Times New Roman&amp;quot;; color: rgb(0, 0, 0); direction: ltr; letter-spacing: 0px; line-height: 120%; opacity: 1; font-size: 30px;&quot;&gt;Конец&lt;/font&gt;&lt;/div&gt;" tags="Блок-схема" id="-vvNRfhl6B39tYFBRO2q-108">
          <mxCell style="verticalAlign=middle;align=center;overflow=width;vsdxID=31;fillColor=none;gradientColor=none;shape=stencil(tVLRDsIgDPwaHjEIWfR9zv9oHGNEhKWgm38vyIzTZXsxvl171zbXlojSt9BJwpkP6M6y13VoiTgQzrVtJeoQEREVEWXjUCp0V1vnuIOkTOjibqnDkOu2fFOkIs7uY4KxZ3zMaqPtRL3frasBT5HDWW8c5UVWL7Z70RQG7Sm6AEE7+8EZQCVpHEQbA2oclCnfS9lN0itGZrZ/sbG4w78YieB9zEYbk39hyn8fP6by44jqAQ==);strokeColor=#000000;spacingTop=-1;spacingBottom=-1;spacingLeft=-1;spacingRight=-1;points=[[0.5,0,0],[0.5,0.5,0],[1,0.5,0]];labelBackgroundColor=none;rounded=0;html=1;whiteSpace=wrap;" parent="_ZZdqA9BTvaIFxd32HA9-258" vertex="1">
            <mxGeometry x="1160" y="750" width="314.96" height="98.425" as="geometry" />
          </mxCell>
        </UserObject>
        <UserObject label="&lt;div style=&quot;&quot;&gt;&lt;font style=&quot;font-family: &amp;quot;Times New Roman&amp;quot;; color: rgb(0, 0, 0); direction: ltr; letter-spacing: 0px; line-height: 120%; opacity: 1; font-size: 30px;&quot;&gt;Обучение нейронной сети&lt;/font&gt;&lt;/div&gt;" tags="Блок-схема" id="23">
          <mxCell style="verticalAlign=middle;align=center;overflow=width;vsdxID=47;fillColor=none;gradientColor=none;shape=stencil(tVLRDsIgDPwaHjEIWfR9zv9oHGNEhKWgm38vyIzTZXsxvl171zbXlojSt9BJwpkP6M6y13VoiTgQzrVtJeoQEREVEWXjUCp0V1vnuIOkTOjibqnDkOu2fFOkIs7uY4KxZ3zMaqPtRL3frasBT5HDWW8c5UVWL7Z70RQG7Sm6AEE7+8EZQCVpHEQbA2oclCnfS9lN0itGZrZ/sbG4w78YieB9zEYbk39hyn8fP6by44jqAQ==);strokeColor=#000000;spacingTop=-1;spacingBottom=-1;spacingLeft=-1;spacingRight=-1;points=[[0.5,0,0],[0.5,0.5,0],[1,0.5,0]];labelBackgroundColor=none;rounded=0;html=1;whiteSpace=wrap;" parent="_ZZdqA9BTvaIFxd32HA9-258" vertex="1">
            <mxGeometry x="1617" y="122" width="314.96" height="98.425" as="geometry" />
          </mxCell>
        </UserObject>
        <UserObject label="&lt;div style=&quot;&quot;&gt;&lt;font style=&quot;font-family: &amp;quot;Times New Roman&amp;quot;; color: rgb(0, 0, 0); direction: ltr; letter-spacing: 0px; line-height: 120%; opacity: 1; font-size: 30px;&quot;&gt;Прямой проход&lt;/font&gt;&lt;/div&gt;" tags="Фон" id="28">
          <mxCell style="verticalAlign=middle;align=center;overflow=width;vsdxID=52;fillColor=none;gradientColor=none;shape=stencil(nZBLDoAgDERP0z3SIyjew0SURgSD+Lu9kMZoXLhwN9O+tukAlrNpJg1SzDH4QW/URgNYgZTkjA4UkwJUgGXng+6DX1zLfmoymdXo17xh5zmRJ6Q42BWCfc2oJfdAr+Yv+AP9Cb7OJ3H/2JG1HNGz/84klThPVCc=);points=[];labelBackgroundColor=none;rounded=0;html=1;whiteSpace=wrap;" parent="_ZZdqA9BTvaIFxd32HA9-258" vertex="1">
            <mxGeometry x="1619.52" y="1257" width="314.96" height="196.85" as="geometry" />
          </mxCell>
        </UserObject>
        <UserObject label="&lt;div style=&quot;&quot;&gt;&lt;font style=&quot;font-family: &amp;quot;Times New Roman&amp;quot;; color: rgb(0, 0, 0); direction: ltr; letter-spacing: 0px; line-height: 120%; opacity: 1; font-size: 30px;&quot;&gt;Расчет предсказаний и потерь&lt;/font&gt;&lt;/div&gt;" tags="Фон" id="29">
          <mxCell style="verticalAlign=middle;align=center;overflow=width;vsdxID=53;fillColor=none;gradientColor=none;shape=stencil(nZBLDoAgDERP0z3SIyjew0SURgSD+Lu9kMZoXLhwN9O+tukAlrNpJg1SzDH4QW/URgNYgZTkjA4UkwJUgGXng+6DX1zLfmoymdXo17xh5zmRJ6Q42BWCfc2oJfdAr+Yv+AP9Cb7OJ3H/2JG1HNGz/84klThPVCc=);points=[];labelBackgroundColor=none;rounded=0;html=1;whiteSpace=wrap;" parent="_ZZdqA9BTvaIFxd32HA9-258" vertex="1">
            <mxGeometry x="1619.52" y="1512" width="314.96" height="196.85" as="geometry" />
          </mxCell>
        </UserObject>
        <UserObject label="" tags="Соединительная_линия" id="78">
          <mxCell style="vsdxID=76;edgeStyle=none;startArrow=none;endArrow=none;startSize=9;endSize=9;spacingTop=0;spacingBottom=0;spacingLeft=0;spacingRight=0;verticalAlign=middle;html=1;labelBackgroundColor=#ffffff;rounded=0;exitX=0.5;exitY=1;exitDx=0;exitDy=0;exitPerimeter=0;" parent="_ZZdqA9BTvaIFxd32HA9-258" source="23" target="_ZZdqA9BTvaIFxd32HA9-321" edge="1">
            <mxGeometry relative="1" as="geometry">
              <mxPoint x="10" as="offset" />
              <Array as="points" />
              <mxPoint x="1777" y="464.0899999999999" as="targetPoint" />
            </mxGeometry>
          </mxCell>
        </UserObject>
        <UserObject label="" tags="Соединительная_линия" id="80">
          <mxCell style="vsdxID=78;edgeStyle=none;startArrow=none;endArrow=none;startSize=9;endSize=9;spacingTop=0;spacingBottom=0;spacingLeft=0;spacingRight=0;verticalAlign=middle;html=1;labelBackgroundColor=#ffffff;rounded=0;" parent="_ZZdqA9BTvaIFxd32HA9-258" source="_ZZdqA9BTvaIFxd32HA9-321" target="-vvNRfhl6B39tYFBRO2q-116" edge="1">
            <mxGeometry relative="1" as="geometry">
              <mxPoint x="10" as="offset" />
              <Array as="points" />
              <mxPoint x="1777" y="783" as="targetPoint" />
              <mxPoint x="1777" y="621.5699999999997" as="sourcePoint" />
            </mxGeometry>
          </mxCell>
        </UserObject>
        <UserObject label="" tags="Соединительная_линия" id="82">
          <mxCell style="vsdxID=80;edgeStyle=none;startArrow=none;endArrow=none;startSize=9;endSize=9;spacingTop=0;spacingBottom=0;spacingLeft=0;spacingRight=0;verticalAlign=middle;html=1;labelBackgroundColor=#ffffff;rounded=0;entryX=0.5;entryY=0;entryDx=0;entryDy=0;entryPerimeter=0;" parent="_ZZdqA9BTvaIFxd32HA9-258" source="_ZZdqA9BTvaIFxd32HA9-320" target="28" edge="1">
            <mxGeometry relative="1" as="geometry">
              <mxPoint x="10" as="offset" />
              <Array as="points" />
              <mxPoint x="1582.48" y="1245.4799999999998" as="sourcePoint" />
            </mxGeometry>
          </mxCell>
        </UserObject>
        <UserObject label="" tags="Соединительная_линия" id="83">
          <mxCell style="vsdxID=81;edgeStyle=none;startArrow=none;endArrow=none;startSize=9;endSize=9;spacingTop=0;spacingBottom=0;spacingLeft=0;spacingRight=0;verticalAlign=middle;html=1;labelBackgroundColor=#ffffff;rounded=0;exitX=0.5;exitY=1;exitDx=0;exitDy=0;exitPerimeter=0;entryX=0.5;entryY=0;entryDx=0;entryDy=0;entryPerimeter=0;" parent="_ZZdqA9BTvaIFxd32HA9-258" source="28" target="29" edge="1">
            <mxGeometry relative="1" as="geometry">
              <mxPoint x="10" as="offset" />
              <Array as="points" />
            </mxGeometry>
          </mxCell>
        </UserObject>
        <UserObject label="" tags="Соединительная_линия" id="84">
          <mxCell style="vsdxID=82;edgeStyle=none;startArrow=none;endArrow=none;startSize=9;endSize=9;spacingTop=0;spacingBottom=0;spacingLeft=0;spacingRight=0;verticalAlign=middle;html=1;labelBackgroundColor=#ffffff;rounded=0;exitX=0.5;exitY=1;exitDx=0;exitDy=0;exitPerimeter=0;" parent="_ZZdqA9BTvaIFxd32HA9-258" source="29" target="-vvNRfhl6B39tYFBRO2q-150" edge="1">
            <mxGeometry relative="1" as="geometry">
              <mxPoint x="10" as="offset" />
              <Array as="points" />
              <mxPoint x="1631" y="2602" as="targetPoint" />
            </mxGeometry>
          </mxCell>
        </UserObject>
        <mxCell id="-vvNRfhl6B39tYFBRO2q-128" value="" style="rounded=0;orthogonalLoop=1;jettySize=auto;html=1;endArrow=none;startFill=0;" parent="_ZZdqA9BTvaIFxd32HA9-258" source="-vvNRfhl6B39tYFBRO2q-115" target="_ZZdqA9BTvaIFxd32HA9-320" edge="1">
          <mxGeometry relative="1" as="geometry">
            <mxPoint x="1649.953589427313" y="1088" as="targetPoint" />
          </mxGeometry>
        </mxCell>
        <UserObject label="&lt;div style=&quot;&quot;&gt;&lt;font style=&quot;font-family: &amp;quot;Times New Roman&amp;quot;; color: rgb(0, 0, 0); direction: ltr; letter-spacing: 0px; line-height: 120%; opacity: 1; font-size: 30px;&quot;&gt;&lt;p style=&quot;white-space-collapse: preserve; margin-top: 0px; margin-bottom: 0px;&quot; dir=&quot;auto&quot;&gt;Переключение модели в режим обучения&lt;/p&gt;&lt;/font&gt;&lt;/div&gt;" tags="Фон" id="-vvNRfhl6B39tYFBRO2q-115">
          <mxCell style="verticalAlign=middle;align=center;overflow=width;vsdxID=4;fillColor=none;gradientColor=none;shape=stencil(nZBLDoAgDERP0z3SIyjew0SURgSD+Lu9kMZoXLhwN9O+tukAlrNpJg1SzDH4QW/URgNYgZTkjA4UkwJUgGXng+6DX1zLfmoymdXo17xh5zmRJ6Q42BWCfc2oJfdAr+Yv+AP9Cb7OJ3H/2JG1HNGz/84klThPVCc=);points=[];labelBackgroundColor=none;rounded=0;html=1;whiteSpace=wrap;spacingLeft=-1.9685;spacingBottom=1.9685;" parent="_ZZdqA9BTvaIFxd32HA9-258" vertex="1">
            <mxGeometry x="1619.52" y="750" width="314.96" height="196.85" as="geometry" />
          </mxCell>
        </UserObject>
        <mxCell id="-vvNRfhl6B39tYFBRO2q-119" value="" style="rounded=0;orthogonalLoop=1;jettySize=auto;html=1;endArrow=none;startFill=0;" parent="_ZZdqA9BTvaIFxd32HA9-258" source="-vvNRfhl6B39tYFBRO2q-116" target="-vvNRfhl6B39tYFBRO2q-115" edge="1">
          <mxGeometry relative="1" as="geometry" />
        </mxCell>
        <mxCell id="-vvNRfhl6B39tYFBRO2q-125" value="&lt;font style=&quot;font-size: 29px;&quot;&gt;Да&lt;/font&gt;" style="edgeLabel;html=1;align=center;verticalAlign=middle;resizable=0;points=[];fontFamily=Times New Roman;fontSize=20;" parent="-vvNRfhl6B39tYFBRO2q-119" vertex="1" connectable="0">
          <mxGeometry x="0.2082" relative="1" as="geometry">
            <mxPoint x="-33" y="-12" as="offset" />
          </mxGeometry>
        </mxCell>
        <mxCell id="-vvNRfhl6B39tYFBRO2q-123" value="" style="edgeStyle=orthogonalEdgeStyle;rounded=0;orthogonalLoop=1;jettySize=auto;html=1;endArrow=none;startFill=0;" parent="_ZZdqA9BTvaIFxd32HA9-258" source="-vvNRfhl6B39tYFBRO2q-116" target="-vvNRfhl6B39tYFBRO2q-121" edge="1">
          <mxGeometry relative="1" as="geometry">
            <mxPoint x="2011" y="940" as="targetPoint" />
          </mxGeometry>
        </mxCell>
        <mxCell id="-vvNRfhl6B39tYFBRO2q-126" value="&lt;font style=&quot;font-size: 29px;&quot;&gt;Нет&lt;/font&gt;" style="edgeLabel;html=1;align=center;verticalAlign=middle;resizable=0;points=[];fontFamily=Times New Roman;fontSize=19;" parent="-vvNRfhl6B39tYFBRO2q-123" vertex="1" connectable="0">
          <mxGeometry x="-0.2895" y="-3" relative="1" as="geometry">
            <mxPoint x="-9" y="-28" as="offset" />
          </mxGeometry>
        </mxCell>
        <UserObject label="" tags="Блок-схема" id="-vvNRfhl6B39tYFBRO2q-116">
          <mxCell style="vsdxID=12;fillColor=none;gradientColor=none;shape=stencil(UzV2Ls5ILEhVNTIoLinKz04tz0wpyVA1dlE1MsrMy0gtyiwBslSNXVWNndPyi1LTi/JL81Ig/IJEkEoQKze/DGRCBUSfAUiHkUElhGcK4bpBVOZk5iGpNEVVikeloQHZpsK0YlWLz1QgA+HFtMycHEgIIcujBwlQCBKcxq4A);strokeColor=#000000;spacingTop=-1;spacingBottom=-1;spacingLeft=-1;spacingRight=-1;points=[[1,0.5,0],[0.5,0,0],[0.5,0,0]];labelBackgroundColor=none;rounded=0;html=1;whiteSpace=wrap;" parent="_ZZdqA9BTvaIFxd32HA9-258" vertex="1">
            <mxGeometry x="1619.52" y="506" width="314.96" height="196.85" as="geometry" />
          </mxCell>
        </UserObject>
        <mxCell id="-vvNRfhl6B39tYFBRO2q-117" value="&lt;div style=&quot;&quot;&gt;&lt;font style=&quot;font-family: &amp;quot;Times New Roman&amp;quot;; color: rgb(0, 0, 0); direction: ltr; letter-spacing: 0px; line-height: 120%; opacity: 1; font-size: 30px;&quot;&gt;Фаза обучения&lt;/font&gt;&lt;/div&gt;" style="text;vsdxID=12;fillColor=none;gradientColor=none;strokeColor=none;spacingTop=-1;spacingBottom=-1;spacingLeft=-1;spacingRight=-1;points=[[1,0.5,0],[0.5,0,0],[0.5,0,0]];labelBackgroundColor=none;rounded=0;html=1;whiteSpace=wrap;verticalAlign=middle;align=center;overflow=width;;html=1;" parent="-vvNRfhl6B39tYFBRO2q-116" vertex="1">
          <mxGeometry x="26.246666666666666" y="24.60625" width="262.46666666666664" height="147.63750000000002" as="geometry" />
        </mxCell>
        <UserObject label="&lt;div style=&quot;&quot;&gt;&lt;font style=&quot;font-family: &amp;quot;Times New Roman&amp;quot;; color: rgb(0, 0, 0); direction: ltr; letter-spacing: 0px; line-height: 120%; opacity: 1; font-size: 30px;&quot;&gt;&lt;p style=&quot;white-space-collapse: preserve; margin-bottom: 0px; margin-top: 0px;&quot; dir=&quot;auto&quot;&gt;Переключение модели в режим оценки&lt;/p&gt;&lt;/font&gt;&lt;/div&gt;" tags="Фон" id="-vvNRfhl6B39tYFBRO2q-121">
          <mxCell style="verticalAlign=middle;align=center;overflow=width;vsdxID=4;fillColor=none;gradientColor=none;shape=stencil(nZBLDoAgDERP0z3SIyjew0SURgSD+Lu9kMZoXLhwN9O+tukAlrNpJg1SzDH4QW/URgNYgZTkjA4UkwJUgGXng+6DX1zLfmoymdXo17xh5zmRJ6Q42BWCfc2oJfdAr+Yv+AP9Cb7OJ3H/2JG1HNGz/84klThPVCc=);points=[];labelBackgroundColor=none;rounded=0;html=1;whiteSpace=wrap;" parent="_ZZdqA9BTvaIFxd32HA9-258" vertex="1">
            <mxGeometry x="2040" y="750" width="314.96" height="196.85" as="geometry" />
          </mxCell>
        </UserObject>
        <mxCell id="-vvNRfhl6B39tYFBRO2q-129" value="" style="endArrow=none;html=1;rounded=0;edgeStyle=orthogonalEdgeStyle;startArrow=block;startFill=1;" parent="_ZZdqA9BTvaIFxd32HA9-258" target="-vvNRfhl6B39tYFBRO2q-121" edge="1">
          <mxGeometry width="50" height="50" relative="1" as="geometry">
            <mxPoint x="1776" y="1218" as="sourcePoint" />
            <mxPoint x="2180" y="883.1199999999999" as="targetPoint" />
            <Array as="points">
              <mxPoint x="2180" y="1218" />
            </Array>
          </mxGeometry>
        </mxCell>
        <UserObject label="&lt;div style=&quot;&quot;&gt;&lt;font style=&quot;font-family: &amp;quot;Times New Roman&amp;quot;; color: rgb(0, 0, 0); direction: ltr; letter-spacing: 0px; line-height: 120%; opacity: 1; font-size: 30px;&quot;&gt;2&lt;/font&gt;&lt;/div&gt;" tags="Соединительная_линия Блок-схема" id="-vvNRfhl6B39tYFBRO2q-150">
          <mxCell style="verticalAlign=middle;align=center;overflow=width;vsdxID=55;fillColor=none;gradientColor=none;shape=stencil(vVFBDgIhDHwNRxKE+IJ1/Ufjll0iLpuCLv5eSDWKevLgbaYznTatMF2cYEGhVUwUjri6IU3C7ITWbp6QXCpImF6YzgbCkcJ5HpgvUJ0VncKlJmTuU7VDqyuzLdM9O4EORaLcaIpa7yNoo75GqSwhuygpJEguzM1UDzSiLGOk9TDec1iKK+LyUf5lsf+tVcDzzNZ5z1961d/fUkr8UtPfAA==);strokeColor=#000000;spacingTop=-1;spacingBottom=-1;spacingLeft=-1;spacingRight=-1;points=[[0.5,0.5,0],[1,0.5,0],[0.5,0,0]];labelBackgroundColor=none;rounded=0;html=1;whiteSpace=wrap;" parent="_ZZdqA9BTvaIFxd32HA9-258" vertex="1">
            <mxGeometry x="1727.79" y="1777" width="98.425" height="98.425" as="geometry" />
          </mxCell>
        </UserObject>
        <mxCell id="_ZZdqA9BTvaIFxd32HA9-320" value="&lt;span style=&quot;font-family: &amp;quot;Times New Roman&amp;quot;;&quot;&gt;&lt;font style=&quot;font-size: 30px;&quot;&gt;Начало цикла для каждого батча&lt;/font&gt;&lt;/span&gt;" style="strokeWidth=1.1810999999999998;html=1;shape=stencil(rZNBDoMgEEVPw96CNd02tF15CdSxEhEMWm1vX3Q0qbGaVJuw4P8/eTBkIIxXmSiBUE+LAgi7EEpDY0pnhLKQtZNum2HgeyhblMEgRVVCXKPXCCtFpACTqrYmh1Ym9UCQOgOLVHYl3tnVdIvxSMT53ZqHTibBGJeiI8yCMS5M07XwxEPocK8XykERelshKKk/CEe6lxBM73DYj/A3IP5N2NLG6fenjJWpYLGKcefPBqJ3F6aI8dRYWBmvVCqFs/rl1J48A/Qu/p3eeAM=);whiteSpace=wrap;" parent="_ZZdqA9BTvaIFxd32HA9-258" vertex="1">
          <mxGeometry x="1617" y="986" width="314.96" height="196.85" as="geometry" />
        </mxCell>
        <mxCell id="_ZZdqA9BTvaIFxd32HA9-321" value="&lt;span style=&quot;font-family: &amp;quot;Times New Roman&amp;quot;;&quot;&gt;&lt;font style=&quot;font-size: 30px;&quot;&gt;Начало цикла по эпохам&lt;/font&gt;&lt;/span&gt;" style="strokeWidth=1.1810999999999998;html=1;shape=stencil(rZNBDoMgEEVPw96CNd02tF15CdSxEhEMWm1vX3Q0qbGaVJuw4P8/eTBkIIxXmSiBUE+LAgi7EEpDY0pnhLKQtZNum2HgeyhblMEgRVVCXKPXCCtFpACTqrYmh1Ym9UCQOgOLVHYl3tnVdIvxSMT53ZqHTibBGJeiI8yCMS5M07XwxEPocK8XykERelshKKk/CEe6lxBM73DYj/A3IP5N2NLG6fenjJWpYLGKcefPBqJ3F6aI8dRYWBmvVCqFs/rl1J48A/Qu/p3eeAM=);whiteSpace=wrap;" parent="_ZZdqA9BTvaIFxd32HA9-258" vertex="1">
          <mxGeometry x="1619.52" y="261" width="314.96" height="196.85" as="geometry" />
        </mxCell>
        <mxCell id="_ZZdqA9BTvaIFxd32HA9-311" value="&lt;span style=&quot;font-family: &amp;quot;Times New Roman&amp;quot;;&quot;&gt;&lt;font style=&quot;font-size: 30px;&quot;&gt;Загрузка данных датасета&lt;/font&gt;&lt;/span&gt;" style="shape=parallelogram;perimeter=parallelogramPerimeter;whiteSpace=wrap;html=1;fixedSize=1;" parent="_ZZdqA9BTvaIFxd32HA9-258" vertex="1">
          <mxGeometry x="167.98" y="506" width="314.96" height="196.85" as="geometry" />
        </mxCell>
        <mxCell id="_ZZdqA9BTvaIFxd32HA9-314" value="&lt;span style=&quot;font-family: &amp;quot;Times New Roman&amp;quot;;&quot;&gt;&lt;font style=&quot;font-size: 30px;&quot;&gt;Вывод метрик&lt;/font&gt;&lt;/span&gt;" style="shape=parallelogram;perimeter=parallelogramPerimeter;whiteSpace=wrap;html=1;fixedSize=1;" parent="_ZZdqA9BTvaIFxd32HA9-258" vertex="1">
          <mxGeometry x="167.98" y="1515" width="314.96" height="196.85" as="geometry" />
        </mxCell>
        <UserObject label="&lt;div style=&quot;&quot;&gt;&lt;font face=&quot;Times New Roman&quot;&gt;&lt;span style=&quot;font-size: 30px;&quot;&gt;Преобработка&lt;/span&gt;&lt;/font&gt;&lt;/div&gt;&lt;div style=&quot;&quot;&gt;&lt;font face=&quot;Times New Roman&quot;&gt;&lt;span style=&quot;font-size: 30px;&quot;&gt;датасета&lt;/span&gt;&lt;/font&gt;&lt;/div&gt;" tags="Блок-схема" id="48">
          <mxCell style="verticalAlign=middle;align=center;overflow=width;vsdxID=103;fillColor=none;gradientColor=none;shape=stencil(nZLdDsIgDIWfprcL0mTG6znfY8mYNCIsDJ2+vZDGn7HMLLs7h34tOQXAatBNr0CKIXh3USO1QQMeQUqyWnkKUQHWgFXnvDp7d7Mt+75JZFJXd08THtwnUocUT3Y7wf7EqCH7g76Lm+A/6EYwuz6Kb8aOjOEVfepLC8ACcX2sGT1hp5MPZVHu14+e48v5smxR5O8dj/ivYP0C);strokeColor=#000000;spacingTop=-1;spacingBottom=-1;spacingLeft=-1;spacingRight=-1;points=[[1,0.5,0],[0.5,0.5,0],[0.5,0,0]];labelBackgroundColor=none;rounded=0;html=1;whiteSpace=wrap;" parent="_ZZdqA9BTvaIFxd32HA9-258" vertex="1">
            <mxGeometry x="167.98" y="750" width="314.96" height="196.85" as="geometry" />
          </mxCell>
        </UserObject>
        <UserObject label="" tags="Соединительная_линия" id="60">
          <mxCell style="vsdxID=114;edgeStyle=none;startArrow=none;endArrow=none;startSize=9;endSize=9;spacingTop=0;spacingBottom=0;spacingLeft=0;spacingRight=0;verticalAlign=middle;html=1;labelBackgroundColor=#ffffff;rounded=0;exitX=0.5;exitY=0;exitDx=0;exitDy=0;exitPerimeter=0;" parent="_ZZdqA9BTvaIFxd32HA9-258" source="48" target="_ZZdqA9BTvaIFxd32HA9-311" edge="1">
            <mxGeometry relative="1" as="geometry">
              <mxPoint x="10" as="offset" />
              <Array as="points" />
              <mxPoint x="321.4799999999998" y="1039.63" as="targetPoint" />
            </mxGeometry>
          </mxCell>
        </UserObject>
        <UserObject label="&lt;div style=&quot;&quot;&gt;&lt;font style=&quot;font-family: &amp;quot;Times New Roman&amp;quot;; color: rgb(0, 0, 0); direction: ltr; letter-spacing: 0px; line-height: 120%; opacity: 1; font-size: 30px;&quot;&gt;Настройка нейронной сети&lt;/font&gt;&lt;/div&gt;" tags="Блок-схема" id="-vvNRfhl6B39tYFBRO2q-99">
          <mxCell style="verticalAlign=middle;align=center;overflow=width;vsdxID=105;fillColor=none;gradientColor=none;shape=stencil(nZLdDsIgDIWfprcL0mTG6znfY8mYNCIsDJ2+vZDGn7HMLLs7h34tOQXAatBNr0CKIXh3USO1QQMeQUqyWnkKUQHWgFXnvDp7d7Mt+75JZFJXd08THtwnUocUT3Y7wf7EqCH7g76Lm+A/6EYwuz6Kb8aOjOEVfepLC8ACcX2sGT1hp5MPZVHu14+e48v5smxR5O8dj/ivYP0C);strokeColor=#000000;spacingTop=-1;spacingBottom=-1;spacingLeft=-1;spacingRight=-1;points=[[1,0.5,0],[0.5,0.5,0],[0.5,0,0]];labelBackgroundColor=none;rounded=0;html=1;whiteSpace=wrap;" parent="_ZZdqA9BTvaIFxd32HA9-258" vertex="1">
            <mxGeometry x="167.98" y="1001.4800000000001" width="314.96" height="196.85" as="geometry" />
          </mxCell>
        </UserObject>
        <UserObject label="" tags="Соединительная_линия" id="-vvNRfhl6B39tYFBRO2q-100">
          <mxCell style="vsdxID=114;edgeStyle=none;startArrow=none;endArrow=none;startSize=9;endSize=9;spacingTop=0;spacingBottom=0;spacingLeft=0;spacingRight=0;verticalAlign=middle;html=1;labelBackgroundColor=#ffffff;rounded=0;" parent="_ZZdqA9BTvaIFxd32HA9-258" source="-vvNRfhl6B39tYFBRO2q-99" target="48" edge="1">
            <mxGeometry relative="1" as="geometry">
              <mxPoint x="10" as="offset" />
              <Array as="points" />
              <mxPoint x="354" y="1162.15" as="sourcePoint" />
              <mxPoint x="354" y="1132.15" as="targetPoint" />
            </mxGeometry>
          </mxCell>
        </UserObject>
        <UserObject label="&lt;font face=&quot;Times New Roman&quot; style=&quot;font-size: 30px;&quot;&gt;Обучение нейронной сети&lt;/font&gt;" tags="Блок-схема" id="49">
          <mxCell style="verticalAlign=middle;align=center;overflow=width;vsdxID=105;fillColor=none;gradientColor=none;shape=stencil(nZLdDsIgDIWfprcL0mTG6znfY8mYNCIsDJ2+vZDGn7HMLLs7h34tOQXAatBNr0CKIXh3USO1QQMeQUqyWnkKUQHWgFXnvDp7d7Mt+75JZFJXd08THtwnUocUT3Y7wf7EqCH7g76Lm+A/6EYwuz6Kb8aOjOEVfepLC8ACcX2sGT1hp5MPZVHu14+e48v5smxR5O8dj/ivYP0C);strokeColor=#000000;spacingTop=-1;spacingBottom=-1;spacingLeft=-1;spacingRight=-1;points=[[1,0.5,0],[0.5,0.5,0],[0.5,0,0]];labelBackgroundColor=none;rounded=0;whiteSpace=wrap;html=1;" parent="_ZZdqA9BTvaIFxd32HA9-258" vertex="1">
            <mxGeometry x="167.98" y="1257" width="314.96" height="196.85" as="geometry" />
          </mxCell>
        </UserObject>
        <UserObject label="" tags="Соединительная_линия" id="59">
          <mxCell style="vsdxID=116;edgeStyle=none;startArrow=none;endArrow=none;startSize=9;endSize=9;spacingTop=0;spacingBottom=0;spacingLeft=0;spacingRight=0;verticalAlign=middle;html=1;labelBackgroundColor=#ffffff;rounded=0;exitX=0.5;exitY=1;exitDx=0;exitDy=0;exitPerimeter=0;" parent="_ZZdqA9BTvaIFxd32HA9-258" source="49" target="_ZZdqA9BTvaIFxd32HA9-314" edge="1">
            <mxGeometry relative="1" as="geometry">
              <mxPoint x="10" as="offset" />
              <Array as="points" />
              <mxPoint x="321.48" y="1959.15" as="targetPoint" />
            </mxGeometry>
          </mxCell>
        </UserObject>
        <UserObject label="" tags="Соединительная_линия" id="93">
          <mxCell style="vsdxID=115;edgeStyle=none;startArrow=none;endArrow=none;startSize=9;endSize=9;spacingTop=0;spacingBottom=0;spacingLeft=0;spacingRight=0;verticalAlign=middle;html=1;labelBackgroundColor=#ffffff;rounded=0;exitX=0.5;exitY=0;exitDx=0;exitDy=0;exitPerimeter=0;" parent="_ZZdqA9BTvaIFxd32HA9-258" source="49" target="-vvNRfhl6B39tYFBRO2q-99" edge="1">
            <mxGeometry relative="1" as="geometry">
              <mxPoint x="10" as="offset" />
              <Array as="points" />
              <mxPoint x="330" y="1714.15" as="targetPoint" />
            </mxGeometry>
          </mxCell>
        </UserObject>
        <UserObject label="&lt;div style=&quot;&quot;&gt;&lt;font style=&quot;font-family: &amp;quot;Times New Roman&amp;quot;; color: rgb(0, 0, 0); direction: ltr; letter-spacing: 0px; line-height: 120%; opacity: 1; font-size: 30px;&quot;&gt;Конец&lt;/font&gt;&lt;/div&gt;" tags="Блок-схема" id="53">
          <mxCell style="verticalAlign=middle;align=center;overflow=width;vsdxID=111;fillColor=none;gradientColor=none;shape=stencil(tVLRDsIgDPwaHjEIWfR9zv9oHGNEhKWgm38vyIzTZXsxvl171zbXlojSt9BJwpkP6M6y13VoiTgQzrVtJeoQEREVEWXjUCp0V1vnuIOkTOjibqnDkOu2fFOkIs7uY4KxZ3zMaqPtRL3frasBT5HDWW8c5UVWL7Z70RQG7Sm6AEE7+8EZQCVpHEQbA2oclCnfS9lN0itGZrZ/sbG4w78YieB9zEYbk39hyn8fP6by44jqAQ==);strokeColor=#000000;spacingTop=-1;spacingBottom=-1;spacingLeft=-1;spacingRight=-1;points=[[0.5,0,0],[0.5,0.5,0],[1,0.5,0]];labelBackgroundColor=none;rounded=0;html=1;whiteSpace=wrap;" parent="_ZZdqA9BTvaIFxd32HA9-258" vertex="1">
            <mxGeometry x="167.98" y="1777" width="314.96" height="98.425" as="geometry" />
          </mxCell>
        </UserObject>
        <UserObject label="" tags="Соединительная_линия" id="58">
          <mxCell style="vsdxID=117;edgeStyle=none;startArrow=none;endArrow=none;startSize=9;endSize=9;spacingTop=0;spacingBottom=0;spacingLeft=0;spacingRight=0;verticalAlign=middle;html=1;labelBackgroundColor=#ffffff;rounded=0;exitX=0.5;exitY=0;exitDx=0;exitDy=0;exitPerimeter=0;" parent="_ZZdqA9BTvaIFxd32HA9-258" source="53" target="_ZZdqA9BTvaIFxd32HA9-314" edge="1">
            <mxGeometry relative="1" as="geometry">
              <mxPoint x="10" as="offset" />
              <Array as="points" />
              <mxPoint x="321.48" y="2116.63" as="targetPoint" />
            </mxGeometry>
          </mxCell>
        </UserObject>
        <UserObject label="" tags="Соединительная_линия" id="61">
          <mxCell style="vsdxID=113;edgeStyle=none;startArrow=none;endArrow=none;startSize=9;endSize=9;spacingTop=0;spacingBottom=0;spacingLeft=0;spacingRight=0;verticalAlign=middle;html=1;labelBackgroundColor=#ffffff;rounded=0;" parent="_ZZdqA9BTvaIFxd32HA9-258" source="46" target="_ZZdqA9BTvaIFxd32HA9-311" edge="1">
            <mxGeometry relative="1" as="geometry">
              <mxPoint x="10" as="offset" />
              <Array as="points" />
              <mxPoint x="322.4642500000009" y="809.0000000000003" as="sourcePoint" />
              <mxPoint x="321.8852067604307" y="882.15" as="targetPoint" />
            </mxGeometry>
          </mxCell>
        </UserObject>
        <UserObject label="&lt;div style=&quot;&quot;&gt;&lt;font face=&quot;Times New Roman&quot;&gt;&lt;span style=&quot;font-size: 30px; background-color: rgb(255, 255, 255);&quot;&gt;Загрузка необходимых библиотек&lt;/span&gt;&lt;/font&gt;&lt;/div&gt;" tags="Фон" id="46">
          <mxCell style="verticalAlign=middle;align=center;overflow=width;vsdxID=100;fillColor=none;gradientColor=none;shape=stencil(nZBLDoAgDERP0z3SIyjew0SURgSD+Lu9kMZoXLhwN9O+tukAlrNpJg1SzDH4QW/URgNYgZTkjA4UkwJUgGXng+6DX1zLfmoymdXo17xh5zmRJ6Q42BWCfc2oJfdAr+Yv+AP9Cb7OJ3H/2JG1HNGz/84klThPVCc=);points=[];labelBackgroundColor=none;rounded=0;html=1;whiteSpace=wrap;" parent="_ZZdqA9BTvaIFxd32HA9-258" vertex="1">
            <mxGeometry x="167" y="261" width="316.9285" height="196.85" as="geometry" />
          </mxCell>
        </UserObject>
        <mxCell id="_ZZdqA9BTvaIFxd32HA9-325" value="&lt;span style=&quot;font-family: &amp;quot;Times New Roman&amp;quot;;&quot;&gt;&lt;font style=&quot;font-size: 30px;&quot;&gt;Конец цикла для каждого мини-батча&lt;/font&gt;&lt;/span&gt;" style="strokeWidth=1.1810999999999998;html=1;shape=stencil(rZNBDoMgEEVPw96CNd02tF15CdSxEhEMWm1vX3Q0qbGaVJuw4P8/eTBkIIxXmSiBUE+LAgi7EEpDY0pnhLKQtZNum2HgeyhblMEgRVVCXKPXCCtFpACTqrYmh1Ym9UCQOgOLVHYl3tnVdIvxSMT53ZqHTibBGJeiI8yCMS5M07XwxEPocK8XykERelshKKk/CEe6lxBM73DYj/A3IP5N2NLG6fenjJWpYLGKcefPBqJ3F6aI8dRYWBmvVCqFs/rl1J48A/Qu/p3eeAM=);whiteSpace=wrap;flipV=1;" parent="_ZZdqA9BTvaIFxd32HA9-258" vertex="1">
          <mxGeometry x="2463.73" y="1257" width="314.96" height="196.85" as="geometry" />
        </mxCell>
        <mxCell id="_ZZdqA9BTvaIFxd32HA9-326" value="&lt;span style=&quot;font-family: &amp;quot;Times New Roman&amp;quot;;&quot;&gt;&lt;font style=&quot;font-size: 30px;&quot;&gt;Конец цикла по эпохам&lt;/font&gt;&lt;/span&gt;" style="strokeWidth=1.1810999999999998;html=1;shape=stencil(rZNBDoMgEEVPw96CNd02tF15CdSxEhEMWm1vX3Q0qbGaVJuw4P8/eTBkIIxXmSiBUE+LAgi7EEpDY0pnhLKQtZNum2HgeyhblMEgRVVCXKPXCCtFpACTqrYmh1Ym9UCQOgOLVHYl3tnVdIvxSMT53ZqHTibBGJeiI8yCMS5M07XwxEPocK8XykERelshKKk/CEe6lxBM73DYj/A3IP5N2NLG6fenjJWpYLGKcefPBqJ3F6aI8dRYWBmvVCqFs/rl1J48A/Qu/p3eeAM=);whiteSpace=wrap;flipV=1;" parent="_ZZdqA9BTvaIFxd32HA9-258" vertex="1">
          <mxGeometry x="2463.73" y="1777" width="314.96" height="196.85" as="geometry" />
        </mxCell>
        <UserObject label="&lt;div style=&quot;&quot;&gt;&lt;font style=&quot;font-family: &amp;quot;Times New Roman&amp;quot;; color: rgb(0, 0, 0); direction: ltr; letter-spacing: 0px; line-height: 120%; opacity: 1; font-size: 30px;&quot;&gt;Конец&lt;/font&gt;&lt;/div&gt;" tags="Блок-схема" id="-vvNRfhl6B39tYFBRO2q-177">
          <mxCell style="verticalAlign=middle;align=center;overflow=width;vsdxID=75;fillColor=none;gradientColor=none;shape=stencil(tVLRDsIgDPwaHjEIWfR9zv9oHGNEhKWgm38vyIzTZXsxvl171zbXlojSt9BJwpkP6M6y13VoiTgQzrVtJeoQEREVEWXjUCp0V1vnuIOkTOjibqnDkOu2fFOkIs7uY4KxZ3zMaqPtRL3frasBT5HDWW8c5UVWL7Z70RQG7Sm6AEE7+8EZQCVpHEQbA2oclCnfS9lN0itGZrZ/sbG4w78YieB9zEYbk39hyn8fP6by44jqAQ==);strokeColor=#000000;spacingTop=-1;spacingBottom=-1;spacingLeft=-1;spacingRight=-1;points=[[0.5,0,0],[0.5,0.5,0],[1,0.5,0]];labelBackgroundColor=none;rounded=0;html=1;whiteSpace=wrap;" parent="_ZZdqA9BTvaIFxd32HA9-258" vertex="1">
            <mxGeometry x="2463.73" y="2035" width="314.96" height="98.425" as="geometry" />
          </mxCell>
        </UserObject>
        <mxCell id="-vvNRfhl6B39tYFBRO2q-178" value="" style="edgeStyle=none;rounded=0;orthogonalLoop=1;jettySize=auto;html=1;endArrow=none;startFill=0;" parent="_ZZdqA9BTvaIFxd32HA9-258" source="_ZZdqA9BTvaIFxd32HA9-326" target="-vvNRfhl6B39tYFBRO2q-177" edge="1">
          <mxGeometry relative="1" as="geometry">
            <mxPoint x="3591.851690485337" y="2132.998344282367" as="sourcePoint" />
          </mxGeometry>
        </mxCell>
        <mxCell id="-vvNRfhl6B39tYFBRO2q-154" value="" style="edgeStyle=none;rounded=0;orthogonalLoop=1;jettySize=auto;html=1;endArrow=none;startFill=0;" parent="_ZZdqA9BTvaIFxd32HA9-258" source="-vvNRfhl6B39tYFBRO2q-141" target="-vvNRfhl6B39tYFBRO2q-153" edge="1">
          <mxGeometry relative="1" as="geometry" />
        </mxCell>
        <UserObject label="&lt;div style=&quot;&quot;&gt;&lt;font style=&quot;font-family: &amp;quot;Times New Roman&amp;quot;; color: rgb(0, 0, 0); direction: ltr; letter-spacing: 0px; line-height: 120%; opacity: 1; font-size: 30px;&quot;&gt;&lt;p style=&quot;white-space-collapse: preserve;&quot; dir=&quot;auto&quot;&gt;Обратное распространение&lt;/p&gt;&lt;/font&gt;&lt;/div&gt;" tags="Фон" id="-vvNRfhl6B39tYFBRO2q-141">
          <mxCell style="verticalAlign=middle;align=center;overflow=width;vsdxID=4;fillColor=none;gradientColor=none;shape=stencil(nZBLDoAgDERP0z3SIyjew0SURgSD+Lu9kMZoXLhwN9O+tukAlrNpJg1SzDH4QW/URgNYgZTkjA4UkwJUgGXng+6DX1zLfmoymdXo17xh5zmRJ6Q42BWCfc2oJfdAr+Yv+AP9Cb7OJ3H/2JG1HNGz/84klThPVCc=);points=[];labelBackgroundColor=none;rounded=0;html=1;whiteSpace=wrap;" parent="_ZZdqA9BTvaIFxd32HA9-258" vertex="1">
            <mxGeometry x="2463.73" y="506" width="314.96" height="196.85" as="geometry" />
          </mxCell>
        </UserObject>
        <mxCell id="-vvNRfhl6B39tYFBRO2q-142" value="" style="rounded=0;orthogonalLoop=1;jettySize=auto;html=1;endArrow=none;startFill=0;" parent="_ZZdqA9BTvaIFxd32HA9-258" source="-vvNRfhl6B39tYFBRO2q-146" target="-vvNRfhl6B39tYFBRO2q-141" edge="1">
          <mxGeometry relative="1" as="geometry" />
        </mxCell>
        <mxCell id="-vvNRfhl6B39tYFBRO2q-143" value="&lt;font style=&quot;font-size: 29px;&quot;&gt;Да&lt;/font&gt;" style="edgeLabel;html=1;align=center;verticalAlign=middle;resizable=0;points=[];fontFamily=Times New Roman;fontSize=20;" parent="-vvNRfhl6B39tYFBRO2q-142" vertex="1" connectable="0">
          <mxGeometry x="0.2082" relative="1" as="geometry">
            <mxPoint x="-25" y="-9" as="offset" />
          </mxGeometry>
        </mxCell>
        <UserObject label="" tags="Блок-схема" id="-vvNRfhl6B39tYFBRO2q-146">
          <mxCell style="vsdxID=12;fillColor=none;gradientColor=none;shape=stencil(UzV2Ls5ILEhVNTIoLinKz04tz0wpyVA1dlE1MsrMy0gtyiwBslSNXVWNndPyi1LTi/JL81Ig/IJEkEoQKze/DGRCBUSfAUiHkUElhGcK4bpBVOZk5iGpNEVVikeloQHZpsK0YlWLz1QgA+HFtMycHEgIIcujBwlQCBKcxq4A);strokeColor=#000000;spacingTop=-1;spacingBottom=-1;spacingLeft=-1;spacingRight=-1;points=[[1,0.5,0],[0.5,0,0],[0.5,0,0]];labelBackgroundColor=none;rounded=0;html=1;whiteSpace=wrap;" parent="_ZZdqA9BTvaIFxd32HA9-258" vertex="1">
            <mxGeometry x="2463.73" y="261" width="314.96" height="196.85" as="geometry" />
          </mxCell>
        </UserObject>
        <mxCell id="-vvNRfhl6B39tYFBRO2q-147" value="&lt;div style=&quot;&quot;&gt;&lt;font style=&quot;font-family: &amp;quot;Times New Roman&amp;quot;; color: rgb(0, 0, 0); direction: ltr; letter-spacing: 0px; line-height: 120%; opacity: 1; font-size: 30px;&quot;&gt;Фаза обучения&lt;/font&gt;&lt;/div&gt;" style="text;vsdxID=12;fillColor=none;gradientColor=none;strokeColor=none;spacingTop=-1;spacingBottom=-1;spacingLeft=-1;spacingRight=-1;points=[[1,0.5,0],[0.5,0,0],[0.5,0,0]];labelBackgroundColor=none;rounded=0;html=1;whiteSpace=wrap;verticalAlign=middle;align=center;overflow=width;;html=1;" parent="-vvNRfhl6B39tYFBRO2q-146" vertex="1">
          <mxGeometry x="26.246666666666666" y="24.606250000000003" width="262.46666666666664" height="147.63750000000002" as="geometry" />
        </mxCell>
        <mxCell id="-vvNRfhl6B39tYFBRO2q-152" value="" style="edgeStyle=none;rounded=0;orthogonalLoop=1;jettySize=auto;html=1;endArrow=none;startFill=0;" parent="_ZZdqA9BTvaIFxd32HA9-258" source="-vvNRfhl6B39tYFBRO2q-151" target="-vvNRfhl6B39tYFBRO2q-146" edge="1">
          <mxGeometry relative="1" as="geometry">
            <mxPoint x="2721" y="284" as="targetPoint" />
          </mxGeometry>
        </mxCell>
        <UserObject label="&lt;div style=&quot;&quot;&gt;&lt;font style=&quot;font-family: &amp;quot;Times New Roman&amp;quot;; color: rgb(0, 0, 0); direction: ltr; letter-spacing: 0px; line-height: 120%; opacity: 1; font-size: 30px;&quot;&gt;2&lt;/font&gt;&lt;/div&gt;" tags="Соединительная_линия Блок-схема" id="-vvNRfhl6B39tYFBRO2q-151">
          <mxCell style="verticalAlign=middle;align=center;overflow=width;vsdxID=56;fillColor=none;gradientColor=none;shape=stencil(vVFBDgIhDHwNRxKE+IJ1/Ufjll0iLpuCLv5eSDWKevLgbaYznTatMF2cYEGhVUwUjri6IU3C7ITWbp6QXCpImF6YzgbCkcJ5HpgvUJ0VncKlJmTuU7VDqyuzLdM9O4EORaLcaIpa7yNoo75GqSwhuygpJEguzM1UDzSiLGOk9TDec1iKK+LyUf5lsf+tVcDzzNZ5z1961d/fUkr8UtPfAA==);strokeColor=#000000;spacingTop=-1;spacingBottom=-1;spacingLeft=-1;spacingRight=-1;points=[[0.5,0.5,0],[1,0.5,0],[0.5,0,0]];labelBackgroundColor=none;rounded=0;html=1;whiteSpace=wrap;" parent="_ZZdqA9BTvaIFxd32HA9-258" vertex="1">
            <mxGeometry x="2572" y="122" width="98.425" height="98.425" as="geometry" />
          </mxCell>
        </UserObject>
        <mxCell id="-vvNRfhl6B39tYFBRO2q-159" value="" style="edgeStyle=none;rounded=0;orthogonalLoop=1;jettySize=auto;html=1;endArrow=none;startFill=0;" parent="_ZZdqA9BTvaIFxd32HA9-258" source="-vvNRfhl6B39tYFBRO2q-153" target="-vvNRfhl6B39tYFBRO2q-157" edge="1">
          <mxGeometry relative="1" as="geometry" />
        </mxCell>
        <UserObject label="&lt;div style=&quot;&quot;&gt;&lt;font style=&quot;font-family: &amp;quot;Times New Roman&amp;quot;; color: rgb(0, 0, 0); direction: ltr; letter-spacing: 0px; line-height: 120%; opacity: 1; font-size: 30px;&quot;&gt;&lt;p style=&quot;white-space-collapse: preserve;&quot; dir=&quot;auto&quot;&gt;Обновление весов&lt;/p&gt;&lt;/font&gt;&lt;/div&gt;" tags="Фон" id="-vvNRfhl6B39tYFBRO2q-153">
          <mxCell style="verticalAlign=middle;align=center;overflow=width;vsdxID=4;fillColor=none;gradientColor=none;shape=stencil(nZBLDoAgDERP0z3SIyjew0SURgSD+Lu9kMZoXLhwN9O+tukAlrNpJg1SzDH4QW/URgNYgZTkjA4UkwJUgGXng+6DX1zLfmoymdXo17xh5zmRJ6Q42BWCfc2oJfdAr+Yv+AP9Cb7OJ3H/2JG1HNGz/84klThPVCc=);points=[];labelBackgroundColor=none;rounded=0;html=1;whiteSpace=wrap;" parent="_ZZdqA9BTvaIFxd32HA9-258" vertex="1">
            <mxGeometry x="2463.73" y="750" width="314.96" height="196.85" as="geometry" />
          </mxCell>
        </UserObject>
        <UserObject label="&lt;div style=&quot;&quot;&gt;&lt;font style=&quot;font-family: &amp;quot;Times New Roman&amp;quot;; color: rgb(0, 0, 0); direction: ltr; letter-spacing: 0px; line-height: 120%; opacity: 1; font-size: 30px;&quot;&gt;&lt;p style=&quot;white-space-collapse: preserve;&quot; dir=&quot;auto&quot;&gt;Сбор метрик&lt;/p&gt;&lt;/font&gt;&lt;/div&gt;" tags="Фон" id="-vvNRfhl6B39tYFBRO2q-157">
          <mxCell style="verticalAlign=middle;align=center;overflow=width;vsdxID=4;fillColor=none;gradientColor=none;shape=stencil(nZBLDoAgDERP0z3SIyjew0SURgSD+Lu9kMZoXLhwN9O+tukAlrNpJg1SzDH4QW/URgNYgZTkjA4UkwJUgGXng+6DX1zLfmoymdXo17xh5zmRJ6Q42BWCfc2oJfdAr+Yv+AP9Cb7OJ3H/2JG1HNGz/84klThPVCc=);points=[];labelBackgroundColor=none;rounded=0;html=1;whiteSpace=wrap;" parent="_ZZdqA9BTvaIFxd32HA9-258" vertex="1">
            <mxGeometry x="2463.73" y="1014" width="314.96" height="196.85" as="geometry" />
          </mxCell>
        </UserObject>
        <mxCell id="-vvNRfhl6B39tYFBRO2q-167" value="" style="edgeStyle=none;rounded=0;orthogonalLoop=1;jettySize=auto;html=1;endArrow=none;startFill=0;" parent="_ZZdqA9BTvaIFxd32HA9-258" source="-vvNRfhl6B39tYFBRO2q-157" target="_ZZdqA9BTvaIFxd32HA9-325" edge="1">
          <mxGeometry relative="1" as="geometry">
            <mxPoint x="3583.856037229778" y="1330.9854886408366" as="targetPoint" />
          </mxGeometry>
        </mxCell>
        <mxCell id="-vvNRfhl6B39tYFBRO2q-163" value="" style="endArrow=blockThin;html=1;rounded=0;edgeStyle=orthogonalEdgeStyle;startArrow=none;startFill=0;endFill=1;" parent="_ZZdqA9BTvaIFxd32HA9-258" source="-vvNRfhl6B39tYFBRO2q-146" edge="1">
          <mxGeometry width="50" height="50" relative="1" as="geometry">
            <mxPoint x="3299.999999999999" y="256" as="sourcePoint" />
            <mxPoint x="2621" y="978" as="targetPoint" />
            <Array as="points">
              <mxPoint x="2994" y="360" />
              <mxPoint x="2994" y="978" />
            </Array>
          </mxGeometry>
        </mxCell>
        <mxCell id="-vvNRfhl6B39tYFBRO2q-164" value="&lt;font style=&quot;font-size: 29px;&quot; face=&quot;Times New Roman&quot;&gt;Нет&lt;/font&gt;" style="edgeLabel;html=1;align=center;verticalAlign=middle;resizable=0;points=[];" parent="-vvNRfhl6B39tYFBRO2q-163" vertex="1" connectable="0">
          <mxGeometry x="-0.6127" y="-3" relative="1" as="geometry">
            <mxPoint x="-137" y="-42" as="offset" />
          </mxGeometry>
        </mxCell>
        <UserObject label="&lt;div style=&quot;&quot;&gt;&lt;font style=&quot;font-family: &amp;quot;Times New Roman&amp;quot;; color: rgb(0, 0, 0); direction: ltr; letter-spacing: 0px; line-height: 120%; opacity: 1; font-size: 30px;&quot;&gt;Сохранение конфигурации модели&lt;/font&gt;&lt;/div&gt;" tags="Фон" id="-vvNRfhl6B39tYFBRO2q-170">
          <mxCell style="verticalAlign=middle;align=center;overflow=width;vsdxID=63;fillColor=none;gradientColor=none;shape=stencil(nZBLDoAgDERP0z3SIyjew0SURgSD+Lu9kMZoXLhwN9O+tukAlrNpJg1SzDH4QW/URgNYgZTkjA4UkwJUgGXng+6DX1zLfmoymdXo17xh5zmRJ6Q42BWCfc2oJfdAr+Yv+AP9Cb7OJ3H/2JG1HNGz/84klThPVCc=);points=[];labelBackgroundColor=none;rounded=0;html=1;whiteSpace=wrap;" parent="_ZZdqA9BTvaIFxd32HA9-258" vertex="1">
            <mxGeometry x="2463.73" y="1515" width="314.96" height="196.85" as="geometry" />
          </mxCell>
        </UserObject>
        <mxCell id="-vvNRfhl6B39tYFBRO2q-176" value="" style="edgeStyle=none;rounded=0;orthogonalLoop=1;jettySize=auto;html=1;endArrow=none;startFill=0;" parent="_ZZdqA9BTvaIFxd32HA9-258" source="-vvNRfhl6B39tYFBRO2q-170" target="_ZZdqA9BTvaIFxd32HA9-326" edge="1">
          <mxGeometry relative="1" as="geometry">
            <mxPoint x="3584.6132935879496" y="1892.9866781373207" as="targetPoint" />
          </mxGeometry>
        </mxCell>
        <mxCell id="-vvNRfhl6B39tYFBRO2q-173" value="" style="edgeStyle=none;rounded=0;orthogonalLoop=1;jettySize=auto;html=1;endArrow=none;startFill=0;" parent="_ZZdqA9BTvaIFxd32HA9-258" source="_ZZdqA9BTvaIFxd32HA9-325" target="-vvNRfhl6B39tYFBRO2q-170" edge="1">
          <mxGeometry relative="1" as="geometry">
            <mxPoint x="3581.729437536518" y="1570.9824442715385" as="sourcePoint" />
          </mxGeometry>
        </mxCell>
        <UserObject label="Начало&lt;br&gt;" tags="Блок-схема" id="45">
          <mxCell style="verticalAlign=middle;align=center;overflow=width;vsdxID=99;fillColor=none;gradientColor=none;shape=stencil(tVLRDsIgDPwaHjEIWfR9zv9oHGNEhKWgm38vyIzTZXsxvl171zbXlojSt9BJwpkP6M6y13VoiTgQzrVtJeoQEREVEWXjUCp0V1vnuIOkTOjibqnDkOu2fFOkIs7uY4KxZ3zMaqPtRL3frasBT5HDWW8c5UVWL7Z70RQG7Sm6AEE7+8EZQCVpHEQbA2oclCnfS9lN0itGZrZ/sbG4w78YieB9zEYbk39hyn8fP6by44jqAQ==);strokeColor=#000000;spacingTop=-1;spacingBottom=-1;spacingLeft=-1;spacingRight=-1;points=[[0.5,0,0],[0.5,0.5,0],[1,0.5,0]];labelBackgroundColor=none;rounded=0;whiteSpace=wrap;html=1;fontFamily=Times New Roman;fontSize=30;" parent="1" vertex="1">
            <mxGeometry x="200" y="124" width="314.96" height="98.425" as="geometry" />
          </mxCell>
        </UserObject>
        <UserObject label="" tags="Соединительная_линия" id="62">
          <mxCell style="vsdxID=112;edgeStyle=none;startArrow=none;endArrow=none;startSize=9;endSize=9;spacingTop=0;spacingBottom=0;spacingLeft=0;spacingRight=0;verticalAlign=middle;html=1;labelBackgroundColor=#ffffff;rounded=0;exitX=0.5;exitY=1;exitDx=0;exitDy=0;exitPerimeter=0;entryX=0.5;entryY=0;entryDx=0;entryDy=0;entryPerimeter=0;" parent="1" source="45" target="46" edge="1">
            <mxGeometry relative="1" as="geometry">
              <mxPoint x="10" as="offset" />
              <Array as="points" />
            </mxGeometry>
          </mxCell>
        </UserObject>
        <UserObject label="" tags="Фон" id="_ZZdqA9BTvaIFxd32HA9-261">
          <mxCell style="vsdxID=188;fillColor=none;gradientColor=none;strokeColor=none;points=[];labelBackgroundColor=none;rounded=0;html=1;whiteSpace=wrap;" parent="1" vertex="1">
            <mxGeometry x="33" y="2176" width="3264" height="160" as="geometry" />
          </mxCell>
        </UserObject>
        <mxCell id="_ZZdqA9BTvaIFxd32HA9-262" style="vsdxID=187;fillColor=none;gradientColor=none;strokeColor=none;points=[];labelBackgroundColor=none;rounded=0;html=1;whiteSpace=wrap;" parent="_ZZdqA9BTvaIFxd32HA9-261" vertex="1">
          <mxGeometry x="2524" width="740" height="160" as="geometry" />
        </mxCell>
        <mxCell id="_ZZdqA9BTvaIFxd32HA9-263" value="&lt;div style=&quot;font-size: 1px&quot;&gt;&lt;p style=&quot;text-align:left;margin-left:0;margin-right:0;margin-top:0px;margin-bottom:0px;text-indent:0;vertical-align:middle;direction:ltr;&quot;&gt;&lt;font style=&quot;font-size:12.7px;font-family:Arial;color:#000000;direction:ltr;letter-spacing:0px;line-height:120%;opacity:1&quot;&gt;&lt;i&gt;Лист &lt;br/&gt;&lt;/i&gt;&lt;/font&gt;&lt;/p&gt;&lt;/div&gt;" style="verticalAlign=middle;align=left;overflow=width;vsdxID=2;fillColor=none;gradientColor=none;shape=stencil(nZBLDoAgDERP0z3SIyjew0SURgSD+Lu9kMZoXLhwN9O+tukAlrNpJg1SzDH4QW/URgNYgZTkjA4UkwJUgGXng+6DX1zLfmoymdXo17xh5zmRJ6Q42BWCfc2oJfdAr+Yv+AP9Cb7OJ3H/2JG1HNGz/84klThPVCc=);strokeColor=none;points=[];labelBackgroundColor=none;rounded=0;html=1;whiteSpace=wrap;" parent="_ZZdqA9BTvaIFxd32HA9-262" vertex="1">
          <mxGeometry x="605" y="60" width="74" height="20" as="geometry" />
        </mxCell>
        <mxCell id="_ZZdqA9BTvaIFxd32HA9-264" value="&lt;div style=&quot;font-size: 1px&quot;&gt;&lt;p style=&quot;text-align:left;margin-left:0;margin-right:0;margin-top:0px;margin-bottom:0px;text-indent:0;vertical-align:middle;direction:ltr;&quot;&gt;&lt;font style=&quot;font-size:12.7px;font-family:Arial;color:#000000;direction:ltr;letter-spacing:0px;line-height:120%;opacity:1&quot;&gt;&lt;i&gt;Листов &lt;br/&gt;&lt;/i&gt;&lt;/font&gt;&lt;/p&gt;&lt;/div&gt;" style="verticalAlign=middle;align=left;overflow=width;vsdxID=3;fillColor=none;gradientColor=none;shape=stencil(nZBLDoAgDERP0z3SIyjew0SURgSD+Lu9kMZoXLhwN9O+tukAlrNpJg1SzDH4QW/URgNYgZTkjA4UkwJUgGXng+6DX1zLfmoymdXo17xh5zmRJ6Q42BWCfc2oJfdAr+Yv+AP9Cb7OJ3H/2JG1HNGz/84klThPVCc=);strokeColor=none;points=[];labelBackgroundColor=none;rounded=0;html=1;whiteSpace=wrap;" parent="_ZZdqA9BTvaIFxd32HA9-262" vertex="1">
          <mxGeometry x="678" y="60" width="59" height="20" as="geometry" />
        </mxCell>
        <mxCell id="_ZZdqA9BTvaIFxd32HA9-265" value="&lt;div style=&quot;font-size: 1px&quot;&gt;&lt;font style=&quot;font-size:25.4px;font-family:Arial;color:#000000;direction:ltr;letter-spacing:0px;line-height:120%;opacity:1&quot;&gt;&lt;i&gt;УО «БрГТУ»&lt;br/&gt;&lt;/i&gt;&lt;/font&gt;&lt;/div&gt;" style="verticalAlign=middle;align=center;overflow=width;vsdxID=4;fillColor=none;gradientColor=none;shape=stencil(nZBLDoAgDERP0z3SIyjew0SURgSD+Lu9kMZoXLhwN9O+tukAlrNpJg1SzDH4QW/URgNYgZTkjA4UkwJUgGXng+6DX1zLfmoymdXo17xh5zmRJ6Q42BWCfc2oJfdAr+Yv+AP9Cb7OJ3H/2JG1HNGz/84klThPVCc=);strokeColor=none;points=[];labelBackgroundColor=none;rounded=0;html=1;whiteSpace=wrap;" parent="_ZZdqA9BTvaIFxd32HA9-262" vertex="1">
          <mxGeometry x="540" y="100" width="200" height="60" as="geometry" />
        </mxCell>
        <mxCell id="_ZZdqA9BTvaIFxd32HA9-266" value="&lt;div style=&quot;font-size: 1px&quot;&gt;&lt;p style=&quot;text-align:left;margin-left:0;margin-right:0;margin-top:0px;margin-bottom:0px;text-indent:0;vertical-align:middle;direction:ltr;&quot;&gt;&lt;font style=&quot;font-size:12.7px;font-family:Arial;color:#000000;direction:ltr;letter-spacing:0px;line-height:120%;opacity:1&quot;&gt;&lt;i&gt;Лит&lt;br/&gt;&lt;/i&gt;&lt;/font&gt;&lt;/p&gt;&lt;/div&gt;" style="verticalAlign=middle;align=left;overflow=width;vsdxID=5;fillColor=none;gradientColor=none;shape=stencil(nZBLDoAgDERP0z3SIyjew0SURgSD+Lu9kMZoXLhwN9O+tukAlrNpJg1SzDH4QW/URgNYgZTkjA4UkwJUgGXng+6DX1zLfmoymdXo17xh5zmRJ6Q42BWCfc2oJfdAr+Yv+AP9Cb7OJ3H/2JG1HNGz/84klThPVCc=);strokeColor=none;points=[];labelBackgroundColor=none;rounded=0;html=1;whiteSpace=wrap;" parent="_ZZdqA9BTvaIFxd32HA9-262" vertex="1">
          <mxGeometry x="545" y="60" width="60" height="20" as="geometry" />
        </mxCell>
        <mxCell id="_ZZdqA9BTvaIFxd32HA9-267" value="&lt;div style=&quot;font-size: 1px&quot;&gt;&lt;p style=&quot;text-align:center;margin-left:0;margin-right:0;margin-top:0px;margin-bottom:0px;text-indent:0;vertical-align:middle;direction:ltr;&quot;&gt;&lt;font style=&quot;font-size:12.7px;font-family:Arial;color:#000000;direction:ltr;letter-spacing:0px;line-height:120%;opacity:1&quot;&gt;&lt;i&gt;Изм&lt;br/&gt;&lt;/i&gt;&lt;/font&gt;&lt;/p&gt;&lt;/div&gt;" style="verticalAlign=middle;align=center;overflow=width;vsdxID=6;fillColor=none;gradientColor=none;shape=stencil(nZBLDoAgDERP0z3SIyjew0SURgSD+Lu9kMZoXLhwN9O+tukAlrNpJg1SzDH4QW/URgNYgZTkjA4UkwJUgGXng+6DX1zLfmoymdXo17xh5zmRJ6Q42BWCfc2oJfdAr+Yv+AP9Cb7OJ3H/2JG1HNGz/84klThPVCc=);strokeColor=none;spacingLeft=-3;spacingRight=-3;points=[];labelBackgroundColor=none;rounded=0;html=1;whiteSpace=wrap;" parent="_ZZdqA9BTvaIFxd32HA9-262" vertex="1">
          <mxGeometry y="40" width="28" height="20" as="geometry" />
        </mxCell>
        <mxCell id="_ZZdqA9BTvaIFxd32HA9-268" value="&lt;div style=&quot;font-size: 1px&quot;&gt;&lt;p style=&quot;text-align:center;margin-left:0;margin-right:0;margin-top:0px;margin-bottom:0px;text-indent:0;vertical-align:middle;direction:ltr;&quot;&gt;&lt;font style=&quot;font-size:12.7px;font-family:Arial;color:#000000;direction:ltr;letter-spacing:0px;line-height:120%;opacity:1&quot;&gt;&lt;i&gt;Лист&lt;br/&gt;&lt;/i&gt;&lt;/font&gt;&lt;/p&gt;&lt;/div&gt;" style="verticalAlign=middle;align=center;overflow=width;vsdxID=7;fillColor=none;gradientColor=none;shape=stencil(nZBLDoAgDERP0z3SIyjew0SURgSD+Lu9kMZoXLhwN9O+tukAlrNpJg1SzDH4QW/URgNYgZTkjA4UkwJUgGXng+6DX1zLfmoymdXo17xh5zmRJ6Q42BWCfc2oJfdAr+Yv+AP9Cb7OJ3H/2JG1HNGz/84klThPVCc=);strokeColor=none;spacingLeft=-3;spacingRight=-3;points=[];labelBackgroundColor=none;rounded=0;html=1;whiteSpace=wrap;" parent="_ZZdqA9BTvaIFxd32HA9-262" vertex="1">
          <mxGeometry x="28" y="40" width="40" height="20" as="geometry" />
        </mxCell>
        <mxCell id="_ZZdqA9BTvaIFxd32HA9-269" value="&lt;div style=&quot;font-size: 1px&quot;&gt;&lt;p style=&quot;text-align:center;margin-left:0;margin-right:0;margin-top:0px;margin-bottom:0px;text-indent:0;vertical-align:middle;direction:ltr;&quot;&gt;&lt;font style=&quot;font-size:12.7px;font-family:Arial;color:#000000;direction:ltr;letter-spacing:0px;line-height:120%;opacity:1&quot;&gt;&lt;i&gt;№ докум.&lt;br/&gt;&lt;/i&gt;&lt;/font&gt;&lt;/p&gt;&lt;/div&gt;" style="verticalAlign=middle;align=center;overflow=width;vsdxID=8;fillColor=none;gradientColor=none;shape=stencil(nZBLDoAgDERP0z3SIyjew0SURgSD+Lu9kMZoXLhwN9O+tukAlrNpJg1SzDH4QW/URgNYgZTkjA4UkwJUgGXng+6DX1zLfmoymdXo17xh5zmRJ6Q42BWCfc2oJfdAr+Yv+AP9Cb7OJ3H/2JG1HNGz/84klThPVCc=);strokeColor=none;points=[];labelBackgroundColor=none;rounded=0;html=1;whiteSpace=wrap;" parent="_ZZdqA9BTvaIFxd32HA9-262" vertex="1">
          <mxGeometry x="68" y="40" width="92" height="20" as="geometry" />
        </mxCell>
        <mxCell id="_ZZdqA9BTvaIFxd32HA9-270" value="&lt;div style=&quot;font-size: 1px&quot;&gt;&lt;p style=&quot;text-align:center;margin-left:0;margin-right:0;margin-top:0px;margin-bottom:0px;text-indent:0;vertical-align:middle;direction:ltr;&quot;&gt;&lt;font style=&quot;font-size:12.7px;font-family:Arial;color:#000000;direction:ltr;letter-spacing:0px;line-height:120%;opacity:1&quot;&gt;&lt;i&gt;Подп.&lt;br/&gt;&lt;/i&gt;&lt;/font&gt;&lt;/p&gt;&lt;/div&gt;" style="verticalAlign=middle;align=center;overflow=width;vsdxID=9;fillColor=none;gradientColor=none;shape=stencil(nZBLDoAgDERP0z3SIyjew0SURgSD+Lu9kMZoXLhwN9O+tukAlrNpJg1SzDH4QW/URgNYgZTkjA4UkwJUgGXng+6DX1zLfmoymdXo17xh5zmRJ6Q42BWCfc2oJfdAr+Yv+AP9Cb7OJ3H/2JG1HNGz/84klThPVCc=);strokeColor=none;points=[];labelBackgroundColor=none;rounded=0;html=1;whiteSpace=wrap;" parent="_ZZdqA9BTvaIFxd32HA9-262" vertex="1">
          <mxGeometry x="160" y="40" width="60" height="20" as="geometry" />
        </mxCell>
        <mxCell id="_ZZdqA9BTvaIFxd32HA9-271" value="&lt;div style=&quot;font-size: 1px&quot;&gt;&lt;p style=&quot;text-align:center;margin-left:0;margin-right:0;margin-top:0px;margin-bottom:0px;text-indent:0;vertical-align:middle;direction:ltr;&quot;&gt;&lt;font style=&quot;font-size:12.7px;font-family:Arial;color:#000000;direction:ltr;letter-spacing:0px;line-height:120%;opacity:1&quot;&gt;&lt;i&gt;Дата&lt;br/&gt;&lt;/i&gt;&lt;/font&gt;&lt;/p&gt;&lt;/div&gt;" style="verticalAlign=middle;align=center;overflow=width;vsdxID=10;fillColor=none;gradientColor=none;shape=stencil(nZBLDoAgDERP0z3SIyjew0SURgSD+Lu9kMZoXLhwN9O+tukAlrNpJg1SzDH4QW/URgNYgZTkjA4UkwJUgGXng+6DX1zLfmoymdXo17xh5zmRJ6Q42BWCfc2oJfdAr+Yv+AP9Cb7OJ3H/2JG1HNGz/84klThPVCc=);strokeColor=none;spacingLeft=-3;spacingRight=-3;points=[];labelBackgroundColor=none;rounded=0;html=1;whiteSpace=wrap;" parent="_ZZdqA9BTvaIFxd32HA9-262" vertex="1">
          <mxGeometry x="220" y="40" width="40" height="20" as="geometry" />
        </mxCell>
        <mxCell id="_ZZdqA9BTvaIFxd32HA9-272" value="&lt;div style=&quot;font-size: 1px&quot;&gt;&lt;p style=&quot;text-align:left;margin-left:0;margin-right:0;margin-top:0px;margin-bottom:0px;text-indent:0;vertical-align:middle;direction:ltr;&quot;&gt;&lt;font style=&quot;font-size:12.7px;font-family:Arial;color:#000000;direction:ltr;letter-spacing:0px;line-height:120%;opacity:1&quot;&gt;&lt;i&gt;Разраб.&lt;br/&gt;&lt;/i&gt;&lt;/font&gt;&lt;/p&gt;&lt;/div&gt;" style="verticalAlign=middle;align=left;overflow=width;vsdxID=11;fillColor=none;gradientColor=none;shape=stencil(nZBLDoAgDERP0z3SIyjew0SURgSD+Lu9kMZoXLhwN9O+tukAlrNpJg1SzDH4QW/URgNYgZTkjA4UkwJUgGXng+6DX1zLfmoymdXo17xh5zmRJ6Q42BWCfc2oJfdAr+Yv+AP9Cb7OJ3H/2JG1HNGz/84klThPVCc=);strokeColor=none;points=[];labelBackgroundColor=none;rounded=0;html=1;whiteSpace=wrap;" parent="_ZZdqA9BTvaIFxd32HA9-262" vertex="1">
          <mxGeometry x="5" y="60" width="68" height="20" as="geometry" />
        </mxCell>
        <mxCell id="_ZZdqA9BTvaIFxd32HA9-273" value="&lt;div style=&quot;font-size: 1px&quot;&gt;&lt;p style=&quot;text-align:left;margin-left:0;margin-right:0;margin-top:0px;margin-bottom:0px;text-indent:0;vertical-align:middle;direction:ltr;&quot;&gt;&lt;font style=&quot;font-size:12.7px;font-family:Arial;color:#000000;direction:ltr;letter-spacing:0px;line-height:120%;opacity:1&quot;&gt;&lt;i&gt;Пров.&lt;br/&gt;&lt;/i&gt;&lt;/font&gt;&lt;/p&gt;&lt;/div&gt;" style="verticalAlign=middle;align=left;overflow=width;vsdxID=12;fillColor=none;gradientColor=none;shape=stencil(nZBLDoAgDERP0z3SIyjew0SURgSD+Lu9kMZoXLhwN9O+tukAlrNpJg1SzDH4QW/URgNYgZTkjA4UkwJUgGXng+6DX1zLfmoymdXo17xh5zmRJ6Q42BWCfc2oJfdAr+Yv+AP9Cb7OJ3H/2JG1HNGz/84klThPVCc=);strokeColor=none;points=[];labelBackgroundColor=none;rounded=0;html=1;whiteSpace=wrap;" parent="_ZZdqA9BTvaIFxd32HA9-262" vertex="1">
          <mxGeometry x="5" y="80" width="68" height="20" as="geometry" />
        </mxCell>
        <mxCell id="_ZZdqA9BTvaIFxd32HA9-274" value="&lt;div style=&quot;font-size: 1px&quot;&gt;&lt;p style=&quot;text-align:left;margin-left:0;margin-right:0;margin-top:0px;margin-bottom:0px;text-indent:0;vertical-align:middle;direction:ltr;&quot;&gt;&lt;font style=&quot;font-size:12.7px;font-family:Arial;color:#000000;direction:ltr;letter-spacing:0px;line-height:120%;opacity:1&quot;&gt;&lt;i&gt;Н.Контр.&lt;br/&gt;&lt;/i&gt;&lt;/font&gt;&lt;/p&gt;&lt;/div&gt;" style="verticalAlign=middle;align=left;overflow=width;vsdxID=13;fillColor=none;gradientColor=none;shape=stencil(nZBLDoAgDERP0z3SIyjew0SURgSD+Lu9kMZoXLhwN9O+tukAlrNpJg1SzDH4QW/URgNYgZTkjA4UkwJUgGXng+6DX1zLfmoymdXo17xh5zmRJ6Q42BWCfc2oJfdAr+Yv+AP9Cb7OJ3H/2JG1HNGz/84klThPVCc=);strokeColor=none;spacingRight=-3;points=[];labelBackgroundColor=none;rounded=0;html=1;whiteSpace=wrap;" parent="_ZZdqA9BTvaIFxd32HA9-262" vertex="1">
          <mxGeometry x="5" y="120" width="68" height="20" as="geometry" />
        </mxCell>
        <mxCell id="_ZZdqA9BTvaIFxd32HA9-275" value="&lt;div style=&quot;font-size: 1px&quot;&gt;&lt;p style=&quot;text-align:left;margin-left:0;margin-right:0;margin-top:0px;margin-bottom:0px;text-indent:0;vertical-align:middle;direction:ltr;&quot;&gt;&lt;font style=&quot;font-size:12.7px;font-family:Arial;color:#000000;direction:ltr;letter-spacing:0px;line-height:120%;opacity:1&quot;&gt;&lt;i&gt;Утв.&lt;br/&gt;&lt;/i&gt;&lt;/font&gt;&lt;/p&gt;&lt;/div&gt;" style="verticalAlign=middle;align=left;overflow=width;vsdxID=14;fillColor=none;gradientColor=none;shape=stencil(nZBLDoAgDERP0z3SIyjew0SURgSD+Lu9kMZoXLhwN9O+tukAlrNpJg1SzDH4QW/URgNYgZTkjA4UkwJUgGXng+6DX1zLfmoymdXo17xh5zmRJ6Q42BWCfc2oJfdAr+Yv+AP9Cb7OJ3H/2JG1HNGz/84klThPVCc=);strokeColor=none;points=[];labelBackgroundColor=none;rounded=0;html=1;whiteSpace=wrap;" parent="_ZZdqA9BTvaIFxd32HA9-262" vertex="1">
          <mxGeometry x="5" y="140" width="68" height="20" as="geometry" />
        </mxCell>
        <mxCell id="_ZZdqA9BTvaIFxd32HA9-276" value="&lt;div style=&quot;font-size: 1px&quot;&gt;&lt;p style=&quot;text-align:left;margin-left:0;margin-right:0;margin-top:0px;margin-bottom:0px;text-indent:0;vertical-align:middle;direction:ltr;&quot;&gt;&lt;font style=&quot;font-size:12.7px;font-family:Arial;color:#000000;direction:ltr;letter-spacing:0px;line-height:120%;opacity:1&quot;&gt;&lt;i&gt;Головко В.А.&lt;br/&gt;&lt;/i&gt;&lt;/font&gt;&lt;/p&gt;&lt;/div&gt;" style="verticalAlign=middle;align=left;overflow=width;vsdxID=19;fillColor=none;gradientColor=none;shape=stencil(nZBLDoAgDERP0z3SIyjew0SURgSD+Lu9kMZoXLhwN9O+tukAlrNpJg1SzDH4QW/URgNYgZTkjA4UkwJUgGXng+6DX1zLfmoymdXo17xh5zmRJ6Q42BWCfc2oJfdAr+Yv+AP9Cb7OJ3H/2JG1HNGz/84klThPVCc=);strokeColor=none;points=[];labelBackgroundColor=none;rounded=0;html=1;whiteSpace=wrap;" parent="_ZZdqA9BTvaIFxd32HA9-262" vertex="1">
          <mxGeometry x="72" y="140" width="108" height="20" as="geometry" />
        </mxCell>
        <mxCell id="_ZZdqA9BTvaIFxd32HA9-277" value="&lt;div style=&quot;font-size: 1px&quot;&gt;&lt;p style=&quot;text-align:center;margin-left:0;margin-right:0;margin-top:0px;margin-bottom:0px;text-indent:0;vertical-align:middle;direction:ltr;&quot;&gt;&lt;font style=&quot;font-size:12.7px;font-family:Arial;color:#000000;direction:ltr;letter-spacing:0px;line-height:120%;opacity:1&quot;&gt;&lt;i&gt;1&lt;br/&gt;&lt;/i&gt;&lt;/font&gt;&lt;/p&gt;&lt;/div&gt;" style="verticalAlign=middle;align=center;overflow=width;vsdxID=21;fillColor=none;gradientColor=none;shape=stencil(nZBLDoAgDERP0z3SIyjew0SURgSD+Lu9kMZoXLhwN9O+tukAlrNpJg1SzDH4QW/URgNYgZTkjA4UkwJUgGXng+6DX1zLfmoymdXo17xh5zmRJ6Q42BWCfc2oJfdAr+Yv+AP9Cb7OJ3H/2JG1HNGz/84klThPVCc=);strokeColor=none;points=[];labelBackgroundColor=none;rounded=0;html=1;whiteSpace=wrap;" parent="_ZZdqA9BTvaIFxd32HA9-262" vertex="1">
          <mxGeometry x="600" y="80" width="74" height="20" as="geometry" />
        </mxCell>
        <mxCell id="_ZZdqA9BTvaIFxd32HA9-278" value="&lt;div style=&quot;font-size: 1px&quot;&gt;&lt;p style=&quot;text-align:center;margin-left:0;margin-right:0;margin-top:0px;margin-bottom:0px;text-indent:0;vertical-align:middle;direction:ltr;&quot;&gt;&lt;font style=&quot;font-size:12.7px;font-family:Arial;color:#000000;direction:ltr;letter-spacing:0px;line-height:120%;opacity:1&quot;&gt;&lt;i&gt;1&lt;br/&gt;&lt;/i&gt;&lt;/font&gt;&lt;/p&gt;&lt;/div&gt;" style="verticalAlign=middle;align=center;overflow=width;vsdxID=22;fillColor=none;gradientColor=none;shape=stencil(nZBLDoAgDERP0z3SIyjew0SURgSD+Lu9kMZoXLhwN9O+tukAlrNpJg1SzDH4QW/URgNYgZTkjA4UkwJUgGXng+6DX1zLfmoymdXo17xh5zmRJ6Q42BWCfc2oJfdAr+Yv+AP9Cb7OJ3H/2JG1HNGz/84klThPVCc=);strokeColor=none;points=[];labelBackgroundColor=none;rounded=0;html=1;whiteSpace=wrap;" parent="_ZZdqA9BTvaIFxd32HA9-262" vertex="1">
          <mxGeometry x="673" y="80" width="66" height="20" as="geometry" />
        </mxCell>
        <mxCell id="_ZZdqA9BTvaIFxd32HA9-279" value="&lt;div style=&quot;font-size: 1px&quot;&gt;&lt;p style=&quot;text-align:center;margin-left:0;margin-right:0;margin-top:0px;margin-bottom:0px;text-indent:0;vertical-align:middle;direction:ltr;&quot;&gt;&lt;font style=&quot;font-size:12.7px;font-family:Arial;color:#000000;direction:ltr;letter-spacing:0px;line-height:120%;opacity:1&quot;&gt;&lt;i&gt;Д&lt;br/&gt;&lt;/i&gt;&lt;/font&gt;&lt;/p&gt;&lt;/div&gt;" style="verticalAlign=middle;align=center;overflow=width;vsdxID=23;fillColor=none;gradientColor=none;shape=stencil(nZBLDoAgDERP0z3SIyjew0SURgSD+Lu9kMZoXLhwN9O+tukAlrNpJg1SzDH4QW/URgNYgZTkjA4UkwJUgGXng+6DX1zLfmoymdXo17xh5zmRJ6Q42BWCfc2oJfdAr+Yv+AP9Cb7OJ3H/2JG1HNGz/84klThPVCc=);strokeColor=none;spacingLeft=-3;spacingRight=-3;points=[];labelBackgroundColor=none;rounded=0;html=1;whiteSpace=wrap;" parent="_ZZdqA9BTvaIFxd32HA9-262" vertex="1">
          <mxGeometry x="540" y="80" width="20" height="20" as="geometry" />
        </mxCell>
        <mxCell id="_ZZdqA9BTvaIFxd32HA9-280" style="vsdxID=44;fillColor=#FFFFFF;gradientColor=none;shape=stencil(UzV2Ls5ILEhVNTIoLinKz04tz0wpyVA1dlE1MsrMy0gtyiwBslSNXVWNndPyi1LTi/JL81Ig/IJEkEoQKze/DGRCBUSfAUiHkUElMs8NojAnMw+nQhMjPQszYhUbGqCYC2QgXAPxCLIcusuBQhBfG7sCAA==);strokeColor=#000000;strokeWidth=4;points=[];labelBackgroundColor=none;rounded=0;html=1;whiteSpace=wrap;" parent="_ZZdqA9BTvaIFxd32HA9-262" vertex="1">
          <mxGeometry x="674" y="60" width="1" height="40" as="geometry" />
        </mxCell>
        <UserObject label="" tags="Фон" id="_ZZdqA9BTvaIFxd32HA9-281">
          <mxCell style="vsdxID=29;edgeStyle=none;startArrow=none;endArrow=none;startSize=5;endSize=5;strokeWidth=4;strokeColor=#000000;spacingTop=0;spacingBottom=0;spacingLeft=0;spacingRight=0;verticalAlign=middle;html=1;labelBackgroundColor=none;rounded=0;" parent="_ZZdqA9BTvaIFxd32HA9-262" edge="1">
            <mxGeometry relative="1" as="geometry">
              <Array as="points" />
              <mxPoint x="540" y="160" as="sourcePoint" />
              <mxPoint x="540" y="60" as="targetPoint" />
            </mxGeometry>
          </mxCell>
        </UserObject>
        <UserObject label="" tags="Фон" id="_ZZdqA9BTvaIFxd32HA9-282">
          <mxCell style="vsdxID=30;edgeStyle=none;startArrow=none;endArrow=none;startSize=5;endSize=5;strokeWidth=4;strokeColor=#000000;spacingTop=0;spacingBottom=0;spacingLeft=0;spacingRight=0;verticalAlign=middle;html=1;labelBackgroundColor=none;rounded=0;" parent="_ZZdqA9BTvaIFxd32HA9-262" edge="1">
            <mxGeometry relative="1" as="geometry">
              <Array as="points" />
              <mxPoint x="260" y="160" as="sourcePoint" />
              <mxPoint x="260" as="targetPoint" />
            </mxGeometry>
          </mxCell>
        </UserObject>
        <UserObject label="" tags="Фон" id="_ZZdqA9BTvaIFxd32HA9-283">
          <mxCell style="vsdxID=31;edgeStyle=none;startArrow=none;endArrow=none;startSize=5;endSize=5;strokeColor=#000000;spacingTop=0;spacingBottom=0;spacingLeft=0;spacingRight=0;verticalAlign=middle;html=1;labelBackgroundColor=none;rounded=0;" parent="_ZZdqA9BTvaIFxd32HA9-262" edge="1">
            <mxGeometry relative="1" as="geometry">
              <mxPoint as="offset" />
              <Array as="points" />
              <mxPoint y="140" as="sourcePoint" />
              <mxPoint x="260" y="140" as="targetPoint" />
            </mxGeometry>
          </mxCell>
        </UserObject>
        <UserObject label="" tags="Фон" id="_ZZdqA9BTvaIFxd32HA9-284">
          <mxCell style="vsdxID=32;edgeStyle=none;startArrow=none;endArrow=none;startSize=5;endSize=5;strokeColor=#000000;spacingTop=0;spacingBottom=0;spacingLeft=0;spacingRight=0;verticalAlign=middle;html=1;labelBackgroundColor=none;rounded=0;" parent="_ZZdqA9BTvaIFxd32HA9-262" edge="1">
            <mxGeometry relative="1" as="geometry">
              <Array as="points" />
              <mxPoint x="260" y="120" as="sourcePoint" />
              <mxPoint y="120" as="targetPoint" />
            </mxGeometry>
          </mxCell>
        </UserObject>
        <UserObject label="" tags="Фон" id="_ZZdqA9BTvaIFxd32HA9-285">
          <mxCell style="vsdxID=33;edgeStyle=none;startArrow=none;endArrow=none;startSize=5;endSize=5;strokeWidth=4;strokeColor=#000000;spacingTop=0;spacingBottom=0;spacingLeft=0;spacingRight=0;verticalAlign=middle;html=1;labelBackgroundColor=none;rounded=0;" parent="_ZZdqA9BTvaIFxd32HA9-262" edge="1">
            <mxGeometry relative="1" as="geometry">
              <Array as="points" />
              <mxPoint x="740" y="100" as="sourcePoint" />
              <mxPoint x="540" y="100" as="targetPoint" />
            </mxGeometry>
          </mxCell>
        </UserObject>
        <UserObject label="" tags="Фон" id="_ZZdqA9BTvaIFxd32HA9-286">
          <mxCell style="vsdxID=34;edgeStyle=none;startArrow=none;endArrow=none;startSize=5;endSize=5;strokeColor=#000000;spacingTop=0;spacingBottom=0;spacingLeft=0;spacingRight=0;verticalAlign=middle;html=1;labelBackgroundColor=none;rounded=0;" parent="_ZZdqA9BTvaIFxd32HA9-262" edge="1">
            <mxGeometry relative="1" as="geometry">
              <Array as="points" />
              <mxPoint x="260" y="100" as="sourcePoint" />
              <mxPoint y="100" as="targetPoint" />
            </mxGeometry>
          </mxCell>
        </UserObject>
        <UserObject label="" tags="Фон" id="_ZZdqA9BTvaIFxd32HA9-287">
          <mxCell style="vsdxID=35;edgeStyle=none;startArrow=none;endArrow=none;startSize=5;endSize=5;strokeWidth=4;strokeColor=#000000;spacingTop=0;spacingBottom=0;spacingLeft=0;spacingRight=0;verticalAlign=middle;html=1;labelBackgroundColor=none;rounded=0;" parent="_ZZdqA9BTvaIFxd32HA9-262" edge="1">
            <mxGeometry relative="1" as="geometry">
              <Array as="points" />
              <mxPoint x="740" y="60" as="sourcePoint" />
              <mxPoint y="60" as="targetPoint" />
            </mxGeometry>
          </mxCell>
        </UserObject>
        <UserObject label="" tags="Фон" id="_ZZdqA9BTvaIFxd32HA9-288">
          <mxCell style="vsdxID=36;edgeStyle=none;startArrow=none;endArrow=none;startSize=5;endSize=5;strokeWidth=4;strokeColor=#000000;spacingTop=0;spacingBottom=0;spacingLeft=0;spacingRight=0;verticalAlign=middle;html=1;labelBackgroundColor=none;rounded=0;" parent="_ZZdqA9BTvaIFxd32HA9-262" edge="1">
            <mxGeometry relative="1" as="geometry">
              <mxPoint as="offset" />
              <Array as="points" />
              <mxPoint y="40" as="sourcePoint" />
              <mxPoint x="260" y="40" as="targetPoint" />
            </mxGeometry>
          </mxCell>
        </UserObject>
        <UserObject label="" tags="Фон" id="_ZZdqA9BTvaIFxd32HA9-289">
          <mxCell style="vsdxID=37;edgeStyle=none;startArrow=none;endArrow=none;startSize=5;endSize=5;strokeWidth=4;strokeColor=#000000;spacingTop=0;spacingBottom=0;spacingLeft=0;spacingRight=0;verticalAlign=middle;html=1;labelBackgroundColor=none;rounded=0;" parent="_ZZdqA9BTvaIFxd32HA9-262" edge="1">
            <mxGeometry relative="1" as="geometry">
              <mxPoint as="offset" />
              <Array as="points" />
              <mxPoint as="sourcePoint" />
              <mxPoint x="740" as="targetPoint" />
            </mxGeometry>
          </mxCell>
        </UserObject>
        <UserObject label="" tags="Фон" id="_ZZdqA9BTvaIFxd32HA9-290">
          <mxCell style="vsdxID=38;edgeStyle=none;startArrow=none;endArrow=none;startSize=5;endSize=5;strokeColor=#000000;spacingTop=0;spacingBottom=0;spacingLeft=0;spacingRight=0;verticalAlign=middle;html=1;labelBackgroundColor=none;rounded=0;" parent="_ZZdqA9BTvaIFxd32HA9-262" edge="1">
            <mxGeometry relative="1" as="geometry">
              <mxPoint as="offset" />
              <Array as="points" />
              <mxPoint y="80" as="sourcePoint" />
              <mxPoint x="260" y="80" as="targetPoint" />
            </mxGeometry>
          </mxCell>
        </UserObject>
        <UserObject label="" tags="Фон" id="_ZZdqA9BTvaIFxd32HA9-291">
          <mxCell style="vsdxID=39;edgeStyle=none;startArrow=none;endArrow=none;startSize=5;endSize=5;strokeWidth=4;strokeColor=#000000;spacingTop=0;spacingBottom=0;spacingLeft=0;spacingRight=0;verticalAlign=middle;html=1;labelBackgroundColor=none;rounded=0;" parent="_ZZdqA9BTvaIFxd32HA9-262" edge="1">
            <mxGeometry relative="1" as="geometry">
              <Array as="points" />
              <mxPoint x="220" as="sourcePoint" />
              <mxPoint x="220" y="160" as="targetPoint" />
            </mxGeometry>
          </mxCell>
        </UserObject>
        <UserObject label="" tags="Фон" id="_ZZdqA9BTvaIFxd32HA9-292">
          <mxCell style="vsdxID=40;edgeStyle=none;startArrow=none;endArrow=none;startSize=5;endSize=5;strokeWidth=4;strokeColor=#000000;spacingTop=0;spacingBottom=0;spacingLeft=0;spacingRight=0;verticalAlign=middle;html=1;labelBackgroundColor=none;rounded=0;" parent="_ZZdqA9BTvaIFxd32HA9-262" edge="1">
            <mxGeometry relative="1" as="geometry">
              <Array as="points" />
              <mxPoint x="160" as="sourcePoint" />
              <mxPoint x="160" y="160" as="targetPoint" />
            </mxGeometry>
          </mxCell>
        </UserObject>
        <UserObject label="" tags="Фон" id="_ZZdqA9BTvaIFxd32HA9-293">
          <mxCell style="vsdxID=41;edgeStyle=none;startArrow=none;endArrow=none;startSize=5;endSize=5;strokeWidth=4;strokeColor=#000000;spacingTop=0;spacingBottom=0;spacingLeft=0;spacingRight=0;verticalAlign=middle;html=1;labelBackgroundColor=none;rounded=0;" parent="_ZZdqA9BTvaIFxd32HA9-262" edge="1">
            <mxGeometry relative="1" as="geometry">
              <Array as="points" />
              <mxPoint x="28" as="sourcePoint" />
              <mxPoint x="28" y="60" as="targetPoint" />
            </mxGeometry>
          </mxCell>
        </UserObject>
        <UserObject label="" tags="Фон" id="_ZZdqA9BTvaIFxd32HA9-294">
          <mxCell style="vsdxID=42;edgeStyle=none;startArrow=none;endArrow=none;startSize=5;endSize=5;strokeWidth=4;strokeColor=#000000;spacingTop=0;spacingBottom=0;spacingLeft=0;spacingRight=0;verticalAlign=middle;html=1;labelBackgroundColor=none;rounded=0;" parent="_ZZdqA9BTvaIFxd32HA9-262" edge="1">
            <mxGeometry relative="1" as="geometry">
              <Array as="points" />
              <mxPoint x="68" as="sourcePoint" />
              <mxPoint x="68" y="160" as="targetPoint" />
            </mxGeometry>
          </mxCell>
        </UserObject>
        <UserObject label="" tags="Фон" id="_ZZdqA9BTvaIFxd32HA9-295">
          <mxCell style="vsdxID=43;edgeStyle=none;startArrow=none;endArrow=none;startSize=5;endSize=5;strokeWidth=4;strokeColor=#000000;spacingTop=0;spacingBottom=0;spacingLeft=0;spacingRight=0;verticalAlign=middle;html=1;labelBackgroundColor=none;rounded=0;" parent="_ZZdqA9BTvaIFxd32HA9-262" edge="1">
            <mxGeometry relative="1" as="geometry">
              <mxPoint as="offset" />
              <Array as="points" />
              <mxPoint x="540" y="80" as="sourcePoint" />
              <mxPoint x="740" y="80" as="targetPoint" />
            </mxGeometry>
          </mxCell>
        </UserObject>
        <UserObject label="" tags="Фон" id="_ZZdqA9BTvaIFxd32HA9-296">
          <mxCell style="vsdxID=45;edgeStyle=none;startArrow=none;endArrow=none;startSize=5;endSize=5;strokeWidth=4;strokeColor=#000000;spacingTop=0;spacingBottom=0;spacingLeft=0;spacingRight=0;verticalAlign=middle;html=1;labelBackgroundColor=none;rounded=0;" parent="_ZZdqA9BTvaIFxd32HA9-262" edge="1">
            <mxGeometry relative="1" as="geometry">
              <Array as="points" />
              <mxPoint x="600" y="60" as="sourcePoint" />
              <mxPoint x="600" y="100" as="targetPoint" />
            </mxGeometry>
          </mxCell>
        </UserObject>
        <UserObject label="" tags="Фон" id="_ZZdqA9BTvaIFxd32HA9-297">
          <mxCell style="vsdxID=46;edgeStyle=none;startArrow=none;endArrow=none;startSize=5;endSize=5;strokeColor=#000000;spacingTop=0;spacingBottom=0;spacingLeft=0;spacingRight=0;verticalAlign=middle;html=1;labelBackgroundColor=none;rounded=0;" parent="_ZZdqA9BTvaIFxd32HA9-262" edge="1">
            <mxGeometry relative="1" as="geometry">
              <Array as="points" />
              <mxPoint x="260" y="20" as="sourcePoint" />
              <mxPoint y="20" as="targetPoint" />
            </mxGeometry>
          </mxCell>
        </UserObject>
        <UserObject label="" tags="Фон" id="_ZZdqA9BTvaIFxd32HA9-298">
          <mxCell style="vsdxID=47;edgeStyle=none;startArrow=none;endArrow=none;startSize=5;endSize=5;strokeColor=#000000;spacingTop=0;spacingBottom=0;spacingLeft=0;spacingRight=0;verticalAlign=middle;html=1;labelBackgroundColor=none;rounded=0;" parent="_ZZdqA9BTvaIFxd32HA9-262" edge="1">
            <mxGeometry relative="1" as="geometry">
              <Array as="points" />
              <mxPoint x="560" y="80" as="sourcePoint" />
              <mxPoint x="560" y="100" as="targetPoint" />
            </mxGeometry>
          </mxCell>
        </UserObject>
        <UserObject label="" tags="Фон" id="_ZZdqA9BTvaIFxd32HA9-299">
          <mxCell style="vsdxID=48;edgeStyle=none;startArrow=none;endArrow=none;startSize=5;endSize=5;strokeColor=#000000;spacingTop=0;spacingBottom=0;spacingLeft=0;spacingRight=0;verticalAlign=middle;html=1;labelBackgroundColor=none;rounded=0;" parent="_ZZdqA9BTvaIFxd32HA9-262" edge="1">
            <mxGeometry relative="1" as="geometry">
              <Array as="points" />
              <mxPoint x="580" y="80" as="sourcePoint" />
              <mxPoint x="580" y="100" as="targetPoint" />
            </mxGeometry>
          </mxCell>
        </UserObject>
        <UserObject label="" tags="Фон" id="_ZZdqA9BTvaIFxd32HA9-300">
          <mxCell style="vsdxID=49;edgeStyle=none;startArrow=none;endArrow=none;startSize=5;endSize=5;strokeWidth=4;strokeColor=#000000;spacingTop=0;spacingBottom=0;spacingLeft=0;spacingRight=0;verticalAlign=middle;html=1;labelBackgroundColor=none;rounded=0;" parent="_ZZdqA9BTvaIFxd32HA9-262" edge="1">
            <mxGeometry relative="1" as="geometry">
              <Array as="points" />
              <mxPoint as="sourcePoint" />
              <mxPoint y="160" as="targetPoint" />
            </mxGeometry>
          </mxCell>
        </UserObject>
        <UserObject label="&lt;div style=&quot;font-size: 1px&quot;&gt;&lt;p style=&quot;text-align:left;margin-left:0;margin-right:0;margin-top:0px;margin-bottom:0px;text-indent:0;vertical-align:middle;direction:ltr;&quot;&gt;&lt;font style=&quot;font-size:12.7px;font-family:Arial;color:#000000;direction:ltr;letter-spacing:0px;line-height:120%;opacity:1&quot;&gt;&lt;i&gt;  &lt;/i&gt;&lt;/font&gt;&lt;font style=&quot;font-size:12.7px;font-family:Arial;color:#000000;direction:ltr;letter-spacing:0px;line-height:120%;opacity:1&quot;&gt;&lt;i&gt;Монтик&lt;/i&gt;&lt;/font&gt;&lt;font style=&quot;font-size:12.7px;font-family:Arial;color:#000000;direction:ltr;letter-spacing:0px;line-height:120%;opacity:1&quot;&gt;&lt;i&gt; Н. С.&lt;/i&gt;&lt;/font&gt;&lt;font style=&quot;font-size:11.29px;font-family:Arial;color:#000000;direction:ltr;letter-spacing:0px;line-height:120%;opacity:1&quot;&gt;&lt;i&gt;&lt;br/&gt;&lt;/i&gt;&lt;/font&gt;&lt;/p&gt;&lt;/div&gt;" tags="Фон" id="_ZZdqA9BTvaIFxd32HA9-301">
          <mxCell style="verticalAlign=middle;align=left;overflow=width;vsdxID=927;fillColor=none;gradientColor=none;shape=stencil(nZBLDoAgDERP0z3SIyjew0SURgSD+Lu9kMZoXLhwN9O+tukAlrNpJg1SzDH4QW/URgNYgZTkjA4UkwJUgGXng+6DX1zLfmoymdXo17xh5zmRJ6Q42BWCfc2oJfdAr+Yv+AP9Cb7OJ3H/2JG1HNGz/84klThPVCc=);strokeColor=none;points=[];labelBackgroundColor=none;rounded=0;html=1;whiteSpace=wrap;" parent="_ZZdqA9BTvaIFxd32HA9-262" vertex="1">
            <mxGeometry x="72" y="80" width="116" height="26" as="geometry" />
          </mxCell>
        </UserObject>
        <UserObject label="&lt;div style=&quot;font-size: 1px&quot;&gt;&lt;p style=&quot;text-align:left;margin-left:0;margin-right:0;margin-top:0px;margin-bottom:0px;text-indent:0;vertical-align:middle;direction:ltr;&quot;&gt;&lt;font style=&quot;font-size:12.7px;font-family:Arial;color:#000000;direction:ltr;letter-spacing:0px;line-height:120%;opacity:1&quot;&gt;&lt;i&gt;Монтик Н. С.&lt;/i&gt;&lt;/font&gt;&lt;font style=&quot;font-size:12.7px;font-family:Arial;color:#000000;direction:ltr;letter-spacing:0px;line-height:120%;opacity:1&quot;&gt;&lt;i&gt;&lt;br/&gt;&lt;/i&gt;&lt;/font&gt;&lt;/p&gt;&lt;/div&gt;" tags="Фон" id="_ZZdqA9BTvaIFxd32HA9-302">
          <mxCell style="verticalAlign=middle;align=left;overflow=width;vsdxID=926;fillColor=none;gradientColor=none;shape=stencil(nZBLDoAgDERP0z3SIyjew0SURgSD+Lu9kMZoXLhwN9O+tukAlrNpJg1SzDH4QW/URgNYgZTkjA4UkwJUgGXng+6DX1zLfmoymdXo17xh5zmRJ6Q42BWCfc2oJfdAr+Yv+AP9Cb7OJ3H/2JG1HNGz/84klThPVCc=);strokeColor=none;points=[];labelBackgroundColor=none;rounded=0;html=1;whiteSpace=wrap;" parent="_ZZdqA9BTvaIFxd32HA9-262" vertex="1">
            <mxGeometry x="72" y="120" width="108" height="20" as="geometry" />
          </mxCell>
        </UserObject>
        <UserObject label="&lt;div style=&quot;font-size: 1px&quot;&gt;&lt;p style=&quot;text-align:left;margin-left:0;margin-right:0;margin-top:0px;margin-bottom:0px;text-indent:0;vertical-align:middle;direction:ltr;&quot;&gt;&lt;font style=&quot;font-size:12.7px;font-family:Arial;color:#000000;direction:ltr;letter-spacing:0px;line-height:120%;opacity:1&quot;&gt;&lt;i&gt;Литвинюк Т. В.&lt;br&gt;&lt;/i&gt;&lt;/font&gt;&lt;/p&gt;&lt;/div&gt;" tags="Фон" id="_ZZdqA9BTvaIFxd32HA9-303">
          <mxCell style="verticalAlign=middle;align=left;overflow=width;vsdxID=922;fillColor=none;gradientColor=none;shape=stencil(nZBLDoAgDERP0z3SIyjew0SURgSD+Lu9kMZoXLhwN9O+tukAlrNpJg1SzDH4QW/URgNYgZTkjA4UkwJUgGXng+6DX1zLfmoymdXo17xh5zmRJ6Q42BWCfc2oJfdAr+Yv+AP9Cb7OJ3H/2JG1HNGz/84klThPVCc=);strokeColor=none;points=[];labelBackgroundColor=none;rounded=0;html=1;whiteSpace=wrap;" parent="_ZZdqA9BTvaIFxd32HA9-262" vertex="1">
            <mxGeometry x="68" y="62" width="108" height="20" as="geometry" />
          </mxCell>
        </UserObject>
        <UserObject label="" tags="Фон" id="_ZZdqA9BTvaIFxd32HA9-304">
          <mxCell style="vsdxID=25;edgeStyle=none;startArrow=none;endArrow=none;startSize=5;endSize=5;strokeWidth=4;strokeColor=#000000;spacingTop=0;spacingBottom=0;spacingLeft=0;spacingRight=0;verticalAlign=middle;html=1;labelBackgroundColor=none;rounded=0;" parent="_ZZdqA9BTvaIFxd32HA9-261" edge="1">
            <mxGeometry relative="1" as="geometry">
              <mxPoint as="offset" />
              <Array as="points" />
              <mxPoint y="160" as="sourcePoint" />
              <mxPoint x="3264" y="160" as="targetPoint" />
            </mxGeometry>
          </mxCell>
        </UserObject>
        <UserObject label="&lt;div style=&quot;&quot;&gt;&lt;p style=&quot;text-align: center; margin: 0px; text-indent: 0px; vertical-align: middle; direction: ltr;&quot;&gt;&lt;font style=&quot;font-family: Arial; color: rgb(0, 0, 0); direction: ltr; letter-spacing: 0px; line-height: 120%; opacity: 1; font-size: 19px;&quot;&gt;&lt;i style=&quot;&quot;&gt;ДП.ИИ-21.210563–05 90 00&lt;/i&gt;&lt;/font&gt;&lt;/p&gt;&lt;/div&gt;" tags="Flowchart" id="_ZZdqA9BTvaIFxd32HA9-305">
          <mxCell style="verticalAlign=middle;align=center;overflow=width;vsdxID=238;rotation=180;fillColor=#FFFFFF;gradientColor=none;shape=stencil(nZBLDoAgDERP0z3SIyjew0SURgSD+Lu9kMZoXLhwN9O+tukAlrNpJg1SzDH4QW/URgNYgZTkjA4UkwJUgGXng+6DX1zLfmoymdXo17xh5zmRJ6Q42BWCfc2oJfdAr+Yv+AP9Cb7OJ3H/2JG1HNGz/84klThPVCc=);strokeColor=#000000;strokeWidth=3;spacingTop=-1;spacingBottom=-1;spacingLeft=-1;spacingRight=-1;points=[[1,0.5,0],[0.5,0.5,0],[0.5,0,0]];labelBackgroundColor=none;rounded=0;html=1;whiteSpace=wrap;" parent="1" vertex="1">
            <mxGeometry x="33" y="2" width="280" height="56" as="geometry" />
          </mxCell>
        </UserObject>
        <UserObject label="&lt;div style=&quot;font-size: 1px&quot;&gt;&lt;p style=&quot;text-align:center;margin-left:0;margin-right:0;margin-top:0px;margin-bottom:0px;text-indent:0;vertical-align:middle;direction:ltr;&quot;&gt;&lt;font style=&quot;font-size:25.4px;font-family:Arial;color:#000000;direction:ltr;letter-spacing:0px;line-height:120%;opacity:1&quot;&gt;&lt;i&gt;ДП.ИИ-21.210563–05 90 00&lt;br&gt;&lt;/i&gt;&lt;/font&gt;&lt;/p&gt;&lt;/div&gt;" tags="Фон" id="_ZZdqA9BTvaIFxd32HA9-306">
          <mxCell style="verticalAlign=middle;align=center;overflow=width;vsdxID=921;fillColor=none;gradientColor=none;shape=stencil(nZBLDoAgDERP0z3SIyjew0SURgSD+Lu9kMZoXLhwN9O+tukAlrNpJg1SzDH4QW/URgNYgZTkjA4UkwJUgGXng+6DX1zLfmoymdXo17xh5zmRJ6Q42BWCfc2oJfdAr+Yv+AP9Cb7OJ3H/2JG1HNGz/84klThPVCc=);strokeColor=none;points=[];labelBackgroundColor=none;rounded=0;html=1;whiteSpace=wrap;" parent="1" vertex="1">
            <mxGeometry x="2813" y="2176" width="480" height="60" as="geometry" />
          </mxCell>
        </UserObject>
        <UserObject label="" tags="Фон" id="_ZZdqA9BTvaIFxd32HA9-307">
          <mxCell style="vsdxID=923;fillColor=none;gradientColor=none;strokeColor=none;points=[];labelBackgroundColor=none;rounded=0;html=1;whiteSpace=wrap;" parent="1" vertex="1">
            <mxGeometry x="2817" y="2236" width="280" height="100" as="geometry" />
          </mxCell>
        </UserObject>
        <UserObject label="" tags="Фон" id="_ZZdqA9BTvaIFxd32HA9-308">
          <mxCell style="vsdxID=924;fillColor=none;gradientColor=none;strokeColor=none;points=[];labelBackgroundColor=none;rounded=0;html=1;whiteSpace=wrap;" parent="1" vertex="1">
            <mxGeometry x="2817" y="2236" width="280" height="100" as="geometry" />
          </mxCell>
        </UserObject>
        <UserObject label="&lt;div style=&quot;font-size: 1px&quot;&gt;&lt;p style=&quot;text-align:center;margin-left:0;margin-right:0;margin-top:0px;margin-bottom:0px;text-indent:0;vertical-align:middle;direction:ltr;&quot;&gt;&lt;font style=&quot;font-size:16.93px;font-family:Arial;color:#000000;direction:ltr;letter-spacing:0px;line-height:120%;opacity:1&quot;&gt;&lt;i&gt;Применение глубокого обучения для распознавания глаукомы по тонометрии глаза.&lt;br&gt;&lt;/i&gt;&lt;/font&gt;&lt;font style=&quot;font-size:16.93px;font-family:Arial;color:#000000;direction:ltr;letter-spacing:0px;line-height:120%;opacity:1&quot;&gt;&lt;i&gt;Схема программы&lt;/i&gt;&lt;/font&gt;&lt;font style=&quot;font-size:16.93px;font-family:Arial;color:#000000;direction:ltr;letter-spacing:0px;line-height:120%;opacity:1&quot;&gt;&lt;i&gt;&lt;br&gt;&lt;/i&gt;&lt;/font&gt;&lt;/p&gt;&lt;/div&gt;" tags="Фон" id="_ZZdqA9BTvaIFxd32HA9-309">
          <mxCell style="verticalAlign=middle;align=center;overflow=width;vsdxID=925;fillColor=none;gradientColor=none;shape=stencil(nZBLDoAgDERP0z3SIyjew0SURgSD+Lu9kMZoXLhwN9O+tukAlrNpJg1SzDH4QW/URgNYgZTkjA4UkwJUgGXng+6DX1zLfmoymdXo17xh5zmRJ6Q42BWCfc2oJfdAr+Yv+AP9Cb7OJ3H/2JG1HNGz/84klThPVCc=);strokeColor=none;points=[];labelBackgroundColor=none;rounded=0;html=1;whiteSpace=wrap;" parent="1" vertex="1">
            <mxGeometry x="2817" y="2236" width="280" height="100" as="geometry" />
          </mxCell>
        </UserObject>
        <UserObject label="" tags="Фон" id="_ZZdqA9BTvaIFxd32HA9-310">
          <mxCell style="vsdxID=28;edgeStyle=none;startArrow=none;endArrow=none;startSize=5;endSize=5;strokeWidth=3;strokeColor=#000000;spacingTop=0;spacingBottom=0;spacingLeft=0;spacingRight=0;verticalAlign=middle;html=1;labelBackgroundColor=none;rounded=0;" parent="1" edge="1">
            <mxGeometry relative="1" as="geometry">
              <Array as="points" />
              <mxPoint x="33" y="6" as="sourcePoint" />
              <mxPoint x="33" y="2336" as="targetPoint" />
            </mxGeometry>
          </mxCell>
        </UserObject>
      </root>
    </mxGraphModel>
  </diagram>
</mxfile>
